<?xml version="1.0" encoding="UTF-8"?>
<!DOCTYPE svg PUBLIC "-//W3C//DTD SVG 1.1//EN" "http://www.w3.org/Graphics/SVG/1.1/DTD/svg11.dtd">
<svg xmlns="http://www.w3.org/2000/svg" version="1.1" width="490px" height="386px" style="shape-rendering:geometricPrecision; text-rendering:geometricPrecision; image-rendering:optimizeQuality; fill-rule:evenodd; clip-rule:evenodd" xmlns:xlink="http://www.w3.org/1999/xlink">
<g><path style="opacity:1" fill="#000000" d="M 123.5,4.5 C 168.832,3.63307 213.832,7.13307 258.5,15C 306.362,22.1696 353.695,31.8363 400.5,44C 424.243,51.1369 447.91,58.4702 471.5,66C 473.709,67.8734 475.542,70.04 477,72.5C 479.582,88.1522 482.082,103.819 484.5,119.5C 482.823,128.347 477.489,133.847 468.5,136C 453.389,138.444 438.722,142.444 424.5,148C 410.351,154.149 401.185,164.649 397,179.5C 390.486,227.391 372.486,270.391 343,308.5C 322.871,334.971 298.704,356.804 270.5,374C 268.633,374.711 267.133,374.211 266,372.5C 264.333,369.5 262.667,366.5 261,363.5C 260.333,362.5 260.333,361.5 261,360.5C 293.212,336.625 320.212,307.958 342,274.5C 378.646,210.233 377.979,146.566 340,83.5C 302.926,50.8864 259.759,31.0531 210.5,24C 181.21,19.8094 151.877,19.4761 122.5,23C 107.442,25.3476 92.4419,27.6809 77.5,30C 73.8751,24.5846 70.3751,19.0846 67,13.5C 66.3162,12.2161 66.4829,11.0495 67.5,10C 86.3103,8.13308 104.977,6.29974 123.5,4.5 Z"/></g>
<g><path style="opacity:1" fill="#04b0f3" d="M 313.5,165.5 C 312.933,167.03 312.267,168.53 311.5,170C 311.968,171.822 312.301,173.989 312.5,176.5C 312.364,179.551 312.698,182.551 313.5,185.5C 313.57,187.666 312.904,187.999 311.5,186.5C 311.167,187.167 310.833,187.833 310.5,188.5C 311.542,192.799 311.709,197.132 311,201.5C 310.5,202 310,202.5 309.5,203C 304.463,203.663 299.463,203.496 294.5,202.5C 292.653,194.716 287.653,190.382 279.5,189.5C 274.738,189.513 270.071,189.847 265.5,190.5C 264.508,190.328 263.842,190.662 263.5,191.5C 262.167,192.167 261.167,193.167 260.5,194.5C 258.445,192.445 256.112,190.779 253.5,189.5C 253.435,186.663 253.435,183.83 253.5,181C 256.167,179.667 256.167,178.333 253.5,177C 256.763,176.131 257.096,174.797 254.5,173C 255.833,172.333 255.833,171.667 254.5,171C 255.167,170.667 255.833,170.333 256.5,170C 250.317,168.212 247.65,163.712 248.5,156.5C 245.304,157.112 242.304,157.112 239.5,156.5C 239.5,155.833 239.833,155.5 240.5,155.5C 246.451,153.35 246.785,150.684 241.5,147.5C 242.956,143.875 241.622,141.042 237.5,139C 238.716,137.26 240.382,136.26 242.5,136C 241.78,133.878 240.613,133.378 239,134.5C 236.626,130.644 233.126,128.811 228.5,129C 227.809,127.933 227.309,126.766 227,125.5C 226.667,126.167 226.333,126.833 226,127.5C 225.361,122.635 223.695,122.302 221,126.5C 219.88,124.586 219.714,122.752 220.5,121C 218.646,119.477 217.146,117.644 216,115.5C 215.667,116.167 215.333,116.833 215,117.5C 214.745,114.207 213.245,113.04 210.5,114C 210.833,113.667 211.167,113.333 211.5,113C 209.671,112.727 208.171,111.893 207,110.5C 206.667,110.833 206.333,111.167 206,111.5C 203.219,108.094 200.219,106.761 197,107.5C 195.287,105.807 193.287,104.474 191,103.5C 189.002,104.271 187.335,103.605 186,101.5C 184.605,102.815 183.605,102.481 183,100.5C 182.667,101.167 182.333,101.833 182,102.5C 180.989,101.663 179.822,101.33 178.5,101.5C 178.657,100.127 178.49,98.7932 178,97.5C 176.215,99.8979 174.715,101.898 173.5,103.5C 172.152,101.389 172.485,99.5553 174.5,98C 172.583,98.0275 170.916,98.8608 169.5,100.5C 168.494,100.062 168.494,99.3957 169.5,98.5C 167.994,97.2528 166.494,97.2528 165,98.5C 164.667,97.8333 164.333,97.1667 164,96.5C 161.667,96.8333 159.333,97.1667 157,97.5C 156.517,96.552 156.351,95.552 156.5,94.5C 154.123,94.7845 151.956,94.7845 150,94.5C 149.147,96.1247 148.147,96.4581 147,95.5C 146.019,98.6545 144.685,98.9878 143,96.5C 142.667,98.5 142.333,100.5 142,102.5C 140.114,101.07 138.447,99.4032 137,97.5C 136.667,98.5 136.333,99.5 136,100.5C 134.434,101.061 133.101,100.394 132,98.5C 130.984,99.6341 130.317,99.3008 130,97.5C 129.748,99.378 129.081,101.378 128,103.5C 127.333,100.833 126.667,100.833 126,103.5C 125.667,102.833 125.333,102.167 125,101.5C 124.418,104.668 123.418,105.001 122,102.5C 121,103.5 120,104.5 119,105.5C 117.597,102.459 115.93,99.1252 114,95.5C 111.913,94.6028 109.746,93.9361 107.5,93.5C 104.785,89.4308 102.452,85.0975 100.5,80.5C 99.1861,79.6872 98.0195,78.6872 97,77.5C 95.9484,73.0684 94.1151,69.0684 91.5,65.5C 152.01,38.1316 209.01,43.9649 262.5,83C 289.024,104.535 306.024,132.035 313.5,165.5 Z"/></g>
<g><path style="opacity:1" fill="#54dedf" d="M 92.5,118.5 C 93.0476,120.394 94.0476,122.06 95.5,123.5C 95.1667,123.833 94.8333,124.167 94.5,124.5C 91.591,121.656 88.9243,118.656 86.5,115.5C 78.8944,107.724 71.3944,99.7235 64,91.5C 63.2506,90.365 63.4173,89.365 64.5,88.5C 74.3141,98.1944 83.6474,108.194 92.5,118.5 Z"/></g>
<g><path style="opacity:1" fill="#80d0f8" d="M 204.5,127.5 C 199.553,126.07 194.22,123.737 188.5,120.5C 187.558,120.608 186.725,120.941 186,121.5C 185.612,120.572 184.945,119.905 184,119.5C 179.955,118.987 176.122,117.821 172.5,116C 166.833,115.667 161.167,115.333 155.5,115C 154.584,114.626 153.75,114.126 153,113.5C 150.144,113.873 147.31,115.039 144.5,117C 141.901,117.769 139.401,117.602 137,116.5C 135.982,118.564 134.649,118.898 133,117.5C 130.525,117.984 128.692,119.317 127.5,121.5C 126.274,120.637 124.94,120.637 123.5,121.5C 121.856,121.19 120.856,120.19 120.5,118.5C 119.494,117.604 119.494,116.938 120.5,116.5C 121.496,116.414 122.329,116.748 123,117.5C 123.667,116.833 124.333,116.167 125,115.5C 126.388,116.554 127.888,116.72 129.5,116C 131.047,114.151 132.881,112.651 135,111.5C 135.333,111.833 135.667,112.167 136,112.5C 138.307,110.392 140.64,109.059 143,108.5C 144.667,111.167 146.333,111.167 148,108.5C 148.626,110.991 149.459,110.991 150.5,108.5C 151.833,108.833 153.167,109.167 154.5,109.5C 155.541,107.009 156.374,107.009 157,109.5C 157.333,108.833 157.667,108.167 158,107.5C 159.137,108.364 160.47,109.364 162,110.5C 166.706,110.321 171.706,110.321 177,110.5C 177.483,111.448 177.649,112.448 177.5,113.5C 180.272,112.629 182.938,112.629 185.5,113.5C 185.413,116.598 185.913,116.932 187,114.5C 188.743,117.042 190.743,119.375 193,121.5C 194.147,120.542 195.147,120.875 196,122.5C 197.049,121.483 198.216,121.316 199.5,122C 201.623,122.816 203.29,124.65 204.5,127.5 Z"/></g>
<g><path style="opacity:1" fill="#acfefe" d="M 120.5,118.5 C 120.856,120.19 121.856,121.19 123.5,121.5C 124.11,122.391 124.443,123.391 124.5,124.5C 121.136,123.222 117.803,123.388 114.5,125C 118.136,125.626 118.136,126.793 114.5,128.5C 112.471,127.371 112.137,127.871 113.5,130C 112.551,130.617 111.718,130.451 111,129.5C 109.421,131.041 107.587,132.208 105.5,133C 106.833,134.84 106.666,135.34 105,134.5C 102.75,137.356 100.417,138.022 98,136.5C 96.1723,138.403 96.339,140.236 98.5,142C 97.4642,143.617 96.2975,143.784 95,142.5C 94.6905,143.766 94.1905,144.933 93.5,146C 94.2583,147.364 93.7583,148.531 92,149.5C 91.5458,156.428 88.3792,160.761 82.5,162.5C 85.7248,163.813 86.8915,166.147 86,169.5C 84.9153,167.343 83.7487,167.176 82.5,169C 83.1667,169.333 83.8333,169.667 84.5,170C 85.1081,172.184 84.4414,174.184 82.5,176C 82.384,179.423 83.0507,182.923 84.5,186.5C 83.8333,186.5 83.1667,186.5 82.5,186.5C 80.5,188.167 78.5,189.833 76.5,191.5C 75.1667,190.833 74.1667,189.833 73.5,188.5C 74.2344,187.122 74.9011,185.622 75.5,184C 74.8586,181.422 74.5252,178.755 74.5,176C 74.609,172.965 75.2757,170.131 76.5,167.5C 75.4425,167.094 74.1092,167.094 72.5,167.5C 72.7135,165.856 72.3802,164.356 71.5,163C 72.2529,161.513 73.0862,161.346 74,162.5C 74.3173,160.699 74.984,160.366 76,161.5C 77.0674,160.809 78.2341,160.309 79.5,160C 76.8333,157.667 76.8333,155.333 79.5,153C 78.4829,151.951 78.3162,150.784 79,149.5C 79.3333,149.833 79.6667,150.167 80,150.5C 80.9025,149.299 82.0692,148.465 83.5,148C 84.4467,145.812 84.4467,143.478 83.5,141C 85.1667,139.333 86.8333,137.667 88.5,136C 87.8333,135.667 87.1667,135.333 86.5,135C 88.6818,132.482 91.1818,131.315 94,131.5C 95.0674,130.809 96.2341,130.309 97.5,130C 96.3463,129.086 96.513,128.253 98,127.5C 98.9745,129.878 99.6411,129.544 100,126.5C 101.073,127.28 102.24,127.113 103.5,126C 105.709,124.127 107.542,121.96 109,119.5C 109.974,121.878 110.641,121.544 111,118.5C 111.333,119.167 111.667,119.833 112,120.5C 113.667,118.833 115.333,117.167 117,115.5C 117.422,117.426 118.589,118.426 120.5,118.5 Z"/></g>
<g><path style="opacity:1" fill="#9bcde5" d="M 204.5,127.5 C 205.167,127.5 205.5,127.833 205.5,128.5C 209.169,132.253 213.669,135.92 219,139.5C 221.859,144.26 224.026,149.26 225.5,154.5C 223.782,152.777 222.449,150.777 221.5,148.5C 220.189,145.189 217.855,142.855 214.5,141.5C 212.719,137.93 210.052,135.263 206.5,133.5C 205.71,132.206 204.71,131.039 203.5,130C 194.219,125.535 184.552,121.868 174.5,119C 172.19,118.503 169.857,118.337 167.5,118.5C 152.134,115.974 137.8,118.974 124.5,127.5C 124.5,126.5 124.5,125.5 124.5,124.5C 124.443,123.391 124.11,122.391 123.5,121.5C 124.94,120.637 126.274,120.637 127.5,121.5C 128.692,119.317 130.525,117.984 133,117.5C 134.649,118.898 135.982,118.564 137,116.5C 139.401,117.602 141.901,117.769 144.5,117C 147.31,115.039 150.144,113.873 153,113.5C 153.75,114.126 154.584,114.626 155.5,115C 161.167,115.333 166.833,115.667 172.5,116C 176.122,117.821 179.955,118.987 184,119.5C 184.945,119.905 185.612,120.572 186,121.5C 186.725,120.941 187.558,120.608 188.5,120.5C 194.22,123.737 199.553,126.07 204.5,127.5 Z"/></g>
<g><path style="opacity:1" fill="#2d293f" d="M 167.5,118.5 C 169.857,118.337 172.19,118.503 174.5,119C 184.552,121.868 194.219,125.535 203.5,130C 204.71,131.039 205.71,132.206 206.5,133.5C 204.605,135.443 202.272,136.943 199.5,138C 195.84,138.547 192.173,139.047 188.5,139.5C 186.68,139.351 185.18,138.684 184,137.5C 183.026,139.878 182.359,139.544 182,136.5C 181.667,137.167 181.333,137.833 181,138.5C 178.35,136.9 175.684,134.567 173,131.5C 172.667,131.833 172.333,132.167 172,132.5C 171.333,131.167 170.667,129.833 170,128.5C 169.333,129.833 168.667,129.833 168,128.5C 167.667,129.167 167.333,129.833 167,130.5C 164.751,130.251 162.751,128.918 161,126.5C 159.251,127.299 157.918,126.632 157,124.5C 155.542,126.524 153.709,126.691 151.5,125C 151.348,123.076 151.348,121.242 151.5,119.5C 156.64,118.512 161.974,118.179 167.5,118.5 Z"/></g>
<g><path style="opacity:1" fill="#64c6f6" d="M 240.5,155.5 C 239.833,155.5 239.5,155.833 239.5,156.5C 237.545,156.799 236.211,157.799 235.5,159.5C 232.026,154.234 228.026,148.734 223.5,143C 223.833,142.667 224.167,142.333 224.5,142C 221.107,140.273 218.774,137.606 217.5,134C 213.045,133.163 210.878,130.663 211,126.5C 209.488,128.957 208.154,128.957 207,126.5C 206.722,127.416 206.222,128.082 205.5,128.5C 205.5,127.833 205.167,127.5 204.5,127.5C 203.29,124.65 201.623,122.816 199.5,122C 198.216,121.316 197.049,121.483 196,122.5C 195.147,120.875 194.147,120.542 193,121.5C 190.743,119.375 188.743,117.042 187,114.5C 185.913,116.932 185.413,116.598 185.5,113.5C 182.938,112.629 180.272,112.629 177.5,113.5C 177.649,112.448 177.483,111.448 177,110.5C 171.706,110.321 166.706,110.321 162,110.5C 160.47,109.364 159.137,108.364 158,107.5C 157.667,108.167 157.333,108.833 157,109.5C 156.374,107.009 155.541,107.009 154.5,109.5C 153.167,109.167 151.833,108.833 150.5,108.5C 149.459,110.991 148.626,110.991 148,108.5C 146.333,111.167 144.667,111.167 143,108.5C 140.64,109.059 138.307,110.392 136,112.5C 135.667,112.167 135.333,111.833 135,111.5C 132.881,112.651 131.047,114.151 129.5,116C 127.888,116.72 126.388,116.554 125,115.5C 124.333,116.167 123.667,116.833 123,117.5C 122.329,116.748 121.496,116.414 120.5,116.5C 119.167,115.5 119.167,114.5 120.5,113.5C 121.302,112.048 121.802,110.382 122,108.5C 122.667,109.833 123.333,109.833 124,108.5C 124.333,109.167 124.667,109.833 125,110.5C 125.667,109.167 126.333,107.833 127,106.5C 127.317,108.301 127.984,108.634 129,107.5C 129.333,106.167 129.667,104.833 130,103.5C 130.7,105.032 131.866,106.032 133.5,106.5C 134.425,105.359 135.259,105.359 136,106.5C 136.419,105.328 137.085,104.328 138,103.5C 139.584,104.861 141.418,105.528 143.5,105.5C 143.942,101.153 144.775,100.82 146,104.5C 146.981,101.345 148.315,101.012 150,103.5C 151.268,103.384 152.602,103.051 154,102.5C 154.626,104.991 155.459,104.991 156.5,102.5C 158.07,102.694 159.57,102.694 161,102.5C 161.667,103.167 162.333,103.833 163,104.5C 164.398,103.949 165.732,103.616 167,103.5C 167.667,106.167 168.333,106.167 169,103.5C 169.317,105.301 169.984,105.634 171,104.5C 174.075,105.249 177.075,106.249 180,107.5C 182.235,106.761 184.235,106.761 186,107.5C 186.333,108.167 186.667,108.833 187,109.5C 189.09,108.209 190.424,108.876 191,111.5C 191.333,110.833 191.667,110.167 192,109.5C 193.003,112.156 194.67,113.156 197,112.5C 200.243,113.408 202.577,115.408 204,118.5C 204.333,117.833 204.667,117.167 205,116.5C 205.442,118.679 206.442,119.345 208,118.5C 210.823,119.329 212.657,121.162 213.5,124C 214.449,124.617 215.282,124.451 216,123.5C 217.191,126.534 219.358,128.201 222.5,128.5C 222.351,129.552 222.517,130.552 223,131.5C 224.583,131.507 226.249,131.174 228,130.5C 228.833,131.333 229.667,132.167 230.5,133C 230.623,134.789 230.623,136.622 230.5,138.5C 232.991,139.541 232.991,140.374 230.5,141C 232.833,143.333 235.167,145.667 237.5,148C 236.833,148.333 236.167,148.667 235.5,149C 237.754,150.772 239.421,152.939 240.5,155.5 Z"/></g>
<g><path style="opacity:1" fill="#94fefd" d="M 114.5,107.5 C 116.379,107.393 116.712,107.893 115.5,109C 116.161,111.672 117.828,113.172 120.5,113.5C 119.167,114.5 119.167,115.5 120.5,116.5C 119.494,116.938 119.494,117.604 120.5,118.5C 118.589,118.426 117.422,117.426 117,115.5C 115.333,117.167 113.667,118.833 112,120.5C 111.667,119.833 111.333,119.167 111,118.5C 110.641,121.544 109.974,121.878 109,119.5C 107.542,121.96 105.709,124.127 103.5,126C 102.24,127.113 101.073,127.28 100,126.5C 99.6411,129.544 98.9745,129.878 98,127.5C 96.513,128.253 96.3463,129.086 97.5,130C 96.2341,130.309 95.0674,130.809 94,131.5C 91.1818,131.315 88.6818,132.482 86.5,135C 87.1667,135.333 87.8333,135.667 88.5,136C 86.8333,137.667 85.1667,139.333 83.5,141C 84.4467,143.478 84.4467,145.812 83.5,148C 82.0692,148.465 80.9025,149.299 80,150.5C 79.6667,150.167 79.3333,149.833 79,149.5C 78.3162,150.784 78.4829,151.951 79.5,153C 76.8333,155.333 76.8333,157.667 79.5,160C 78.2341,160.309 77.0674,160.809 76,161.5C 74.984,160.366 74.3173,160.699 74,162.5C 73.0862,161.346 72.2529,161.513 71.5,163C 72.3802,164.356 72.7135,165.856 72.5,167.5C 74.1092,167.094 75.4425,167.094 76.5,167.5C 75.2757,170.131 74.609,172.965 74.5,176C 74.5252,178.755 74.8586,181.422 75.5,184C 74.9011,185.622 74.2344,187.122 73.5,188.5C 67.0515,185.498 60.8848,185.832 55,189.5C 54.2352,189.43 53.7352,189.097 53.5,188.5C 56.753,186.266 60.4197,185.099 64.5,185C 64.1667,184.667 63.8333,184.333 63.5,184C 65.9075,181.631 65.9075,179.131 63.5,176.5C 65.0198,174.338 66.0198,172.005 66.5,169.5C 63.0441,169.596 59.8774,170.596 57,172.5C 54.9987,170.198 54.4987,167.698 55.5,165C 58.824,164.057 62.1574,163.224 65.5,162.5C 65.5,157.833 65.5,153.167 65.5,148.5C 66.552,148.649 67.552,148.483 68.5,148C 67.6634,146.989 67.33,145.822 67.5,144.5C 69.6015,146.109 71.9348,146.609 74.5,146C 72.2757,144.219 69.9423,142.719 67.5,141.5C 67.3309,136.959 67.9975,136.626 69.5,140.5C 69.6691,139.603 70.0024,138.603 70.5,137.5C 72.2012,137.81 73.8678,137.31 75.5,136C 74.6705,134.184 73.8372,132.351 73,130.5C 72.6667,130.833 72.3333,131.167 72,131.5C 66.7806,127.288 67.7806,124.955 75,124.5C 75.3333,125.167 75.6667,125.833 76,126.5C 78.7482,126.26 81.9148,125.926 85.5,125.5C 84.2822,124.197 84.6155,123.197 86.5,122.5C 85.3284,120.177 85.3284,117.844 86.5,115.5C 88.9243,118.656 91.591,121.656 94.5,124.5C 94.8333,124.167 95.1667,123.833 95.5,123.5C 94.0476,122.06 93.0476,120.394 92.5,118.5C 91.3424,117.05 91.8424,116.05 94,115.5C 95.6667,118.167 97.3333,118.167 99,115.5C 99.3333,115.833 99.6667,116.167 100,116.5C 100.374,115.584 100.874,114.75 101.5,114C 105.084,112.927 108.75,112.26 112.5,112C 111.62,110.644 111.286,109.144 111.5,107.5C 112.5,107.5 113.5,107.5 114.5,107.5 Z"/></g>
<g><path style="opacity:1" fill="#565469" d="M 167.5,118.5 C 161.974,118.179 156.64,118.512 151.5,119.5C 149.139,119.674 146.806,120.007 144.5,120.5C 143.442,121.6 142.608,122.934 142,124.5C 141.309,122.109 140.309,122.109 139,124.5C 135.953,124.142 133.786,125.642 132.5,129C 134.367,129.711 135.867,129.211 137,127.5C 138.779,128.479 140.445,128.146 142,126.5C 142.667,129.167 143.333,129.167 144,126.5C 144.667,127.833 145.333,127.833 146,126.5C 146.333,128.833 146.667,131.167 147,133.5C 148,133.167 149,132.833 150,132.5C 152.295,132.689 154.295,134.023 156,136.5C 158.585,135.115 160.585,135.782 162,138.5C 162.718,137.549 163.551,137.383 164.5,138C 166.977,139.643 169.31,141.476 171.5,143.5C 178.664,142.468 179.664,144.301 174.5,149C 175.833,149.667 175.833,150.333 174.5,151C 177.167,151.667 177.167,152.333 174.5,153C 176.991,153.626 176.991,154.459 174.5,155.5C 174.709,156.086 175.043,156.586 175.5,157C 174.514,159.328 172.514,161.328 169.5,163C 170.381,163.708 171.047,164.542 171.5,165.5C 169.436,164.942 167.77,163.775 166.5,162C 167.289,161.454 168.289,160.787 169.5,160C 169.152,157.945 169.819,155.945 171.5,154C 171.539,152.755 171.205,151.422 170.5,150C 171.34,148.233 172.673,146.899 174.5,146C 172.781,144.943 170.947,144.11 169,143.5C 167.274,144.576 165.441,144.743 163.5,144C 158.364,140.677 153.197,138.177 148,136.5C 147.586,136.957 147.086,137.291 146.5,137.5C 144.071,136.145 142.738,134.478 142.5,132.5C 140.071,132.421 137.571,132.755 135,133.5C 134.692,132.692 134.192,132.025 133.5,131.5C 127.849,131.94 122.516,132.94 117.5,134.5C 117.5,135.5 117.5,136.5 117.5,137.5C 117.167,137.5 116.833,137.5 116.5,137.5C 114.545,138.323 112.545,138.49 110.5,138C 111.823,137.184 112.489,136.017 112.5,134.5C 115.772,130.889 119.772,128.556 124.5,127.5C 137.8,118.974 152.134,115.974 167.5,118.5 Z"/></g>
<g><path style="opacity:1" fill="#75fefe" d="M 91.5,65.5 C 94.1151,69.0684 95.9484,73.0684 97,77.5C 98.0195,78.6872 99.1861,79.6872 100.5,80.5C 102.452,85.0975 104.785,89.4308 107.5,93.5C 109.629,97.6747 111.962,101.175 114.5,104C 113.829,104.986 113.829,106.153 114.5,107.5C 113.5,107.5 112.5,107.5 111.5,107.5C 111.286,109.144 111.62,110.644 112.5,112C 108.75,112.26 105.084,112.927 101.5,114C 100.874,114.75 100.374,115.584 100,116.5C 99.6667,116.167 99.3333,115.833 99,115.5C 97.3333,118.167 95.6667,118.167 94,115.5C 91.8424,116.05 91.3424,117.05 92.5,118.5C 83.6474,108.194 74.3141,98.1944 64.5,88.5C 63.4173,89.365 63.2506,90.365 64,91.5C 71.3944,99.7235 78.8944,107.724 86.5,115.5C 85.3284,117.844 85.3284,120.177 86.5,122.5C 84.6155,123.197 84.2822,124.197 85.5,125.5C 81.9148,125.926 78.7482,126.26 76,126.5C 75.6667,125.833 75.3333,125.167 75,124.5C 67.7806,124.955 66.7806,127.288 72,131.5C 72.3333,131.167 72.6667,130.833 73,130.5C 73.8372,132.351 74.6705,134.184 75.5,136C 73.8678,137.31 72.2012,137.81 70.5,137.5C 70.0024,138.603 69.6691,139.603 69.5,140.5C 67.9975,136.626 67.3309,136.959 67.5,141.5C 60.9099,138.872 54.5765,135.705 48.5,132C 47.6433,131.311 46.9767,130.478 46.5,129.5C 42.4919,128.543 38.6586,127.21 35,125.5C 34.5,125.833 34,126.167 33.5,126.5C 36.1795,130.126 39.8462,131.96 44.5,132C 51.9328,136.714 59.5995,140.881 67.5,144.5C 67.33,145.822 67.6634,146.989 68.5,148C 67.552,148.483 66.552,148.649 65.5,148.5C 65.5,153.167 65.5,157.833 65.5,162.5C 62.1574,163.224 58.824,164.057 55.5,165C 54.4987,167.698 54.9987,170.198 57,172.5C 59.8774,170.596 63.0441,169.596 66.5,169.5C 66.0198,172.005 65.0198,174.338 63.5,176.5C 65.9075,179.131 65.9075,181.631 63.5,184C 63.8333,184.333 64.1667,184.667 64.5,185C 60.4197,185.099 56.753,186.266 53.5,188.5C 50.6608,186.988 47.6608,185.988 44.5,185.5C 39.3763,185.712 34.3763,186.046 29.5,186.5C 28.1667,187.167 27.1667,188.167 26.5,189.5C 25.8333,189.833 25.1667,190.167 24.5,190.5C 19.4477,195.223 14.4477,199.889 9.5,204.5C 9.42489,141.662 36.7582,95.3284 91.5,65.5 Z"/></g>
<g><path style="opacity:1" fill="#3cbbf2" d="M 107.5,93.5 C 109.746,93.9361 111.913,94.6028 114,95.5C 115.93,99.1252 117.597,102.459 119,105.5C 120,104.5 121,103.5 122,102.5C 123.418,105.001 124.418,104.668 125,101.5C 125.333,102.167 125.667,102.833 126,103.5C 126.667,100.833 127.333,100.833 128,103.5C 129.081,101.378 129.748,99.378 130,97.5C 130.317,99.3008 130.984,99.6341 132,98.5C 133.101,100.394 134.434,101.061 136,100.5C 136.333,99.5 136.667,98.5 137,97.5C 138.447,99.4032 140.114,101.07 142,102.5C 142.333,100.5 142.667,98.5 143,96.5C 144.685,98.9878 146.019,98.6545 147,95.5C 148.147,96.4581 149.147,96.1247 150,94.5C 151.956,94.7845 154.123,94.7845 156.5,94.5C 156.351,95.552 156.517,96.552 157,97.5C 159.333,97.1667 161.667,96.8333 164,96.5C 164.333,97.1667 164.667,97.8333 165,98.5C 166.494,97.2528 167.994,97.2528 169.5,98.5C 168.494,99.3957 168.494,100.062 169.5,100.5C 170.916,98.8608 172.583,98.0275 174.5,98C 172.485,99.5553 172.152,101.389 173.5,103.5C 174.715,101.898 176.215,99.8979 178,97.5C 178.49,98.7932 178.657,100.127 178.5,101.5C 179.822,101.33 180.989,101.663 182,102.5C 182.333,101.833 182.667,101.167 183,100.5C 183.605,102.481 184.605,102.815 186,101.5C 187.335,103.605 189.002,104.271 191,103.5C 193.287,104.474 195.287,105.807 197,107.5C 200.219,106.761 203.219,108.094 206,111.5C 206.333,111.167 206.667,110.833 207,110.5C 208.171,111.893 209.671,112.727 211.5,113C 211.167,113.333 210.833,113.667 210.5,114C 213.245,113.04 214.745,114.207 215,117.5C 215.333,116.833 215.667,116.167 216,115.5C 217.146,117.644 218.646,119.477 220.5,121C 219.714,122.752 219.88,124.586 221,126.5C 223.695,122.302 225.361,122.635 226,127.5C 226.333,126.833 226.667,126.167 227,125.5C 227.309,126.766 227.809,127.933 228.5,129C 233.126,128.811 236.626,130.644 239,134.5C 240.613,133.378 241.78,133.878 242.5,136C 240.382,136.26 238.716,137.26 237.5,139C 241.622,141.042 242.956,143.875 241.5,147.5C 246.785,150.684 246.451,153.35 240.5,155.5C 239.421,152.939 237.754,150.772 235.5,149C 236.167,148.667 236.833,148.333 237.5,148C 235.167,145.667 232.833,143.333 230.5,141C 232.991,140.374 232.991,139.541 230.5,138.5C 230.623,136.622 230.623,134.789 230.5,133C 229.667,132.167 228.833,131.333 228,130.5C 226.249,131.174 224.583,131.507 223,131.5C 222.517,130.552 222.351,129.552 222.5,128.5C 219.358,128.201 217.191,126.534 216,123.5C 215.282,124.451 214.449,124.617 213.5,124C 212.657,121.162 210.823,119.329 208,118.5C 206.442,119.345 205.442,118.679 205,116.5C 204.667,117.167 204.333,117.833 204,118.5C 202.577,115.408 200.243,113.408 197,112.5C 194.67,113.156 193.003,112.156 192,109.5C 191.667,110.167 191.333,110.833 191,111.5C 190.424,108.876 189.09,108.209 187,109.5C 186.667,108.833 186.333,108.167 186,107.5C 184.235,106.761 182.235,106.761 180,107.5C 177.075,106.249 174.075,105.249 171,104.5C 169.984,105.634 169.317,105.301 169,103.5C 168.333,106.167 167.667,106.167 167,103.5C 165.732,103.616 164.398,103.949 163,104.5C 162.333,103.833 161.667,103.167 161,102.5C 159.57,102.694 158.07,102.694 156.5,102.5C 155.459,104.991 154.626,104.991 154,102.5C 152.602,103.051 151.268,103.384 150,103.5C 148.315,101.012 146.981,101.345 146,104.5C 144.775,100.82 143.942,101.153 143.5,105.5C 141.418,105.528 139.584,104.861 138,103.5C 137.085,104.328 136.419,105.328 136,106.5C 135.259,105.359 134.425,105.359 133.5,106.5C 131.866,106.032 130.7,105.032 130,103.5C 129.667,104.833 129.333,106.167 129,107.5C 127.984,108.634 127.317,108.301 127,106.5C 126.333,107.833 125.667,109.167 125,110.5C 124.667,109.833 124.333,109.167 124,108.5C 123.333,109.833 122.667,109.833 122,108.5C 121.802,110.382 121.302,112.048 120.5,113.5C 117.828,113.172 116.161,111.672 115.5,109C 116.712,107.893 116.379,107.393 114.5,107.5C 113.829,106.153 113.829,104.986 114.5,104C 111.962,101.175 109.629,97.6747 107.5,93.5 Z"/></g>
<g><path style="opacity:1" fill="#98969c" d="M 134.5,136.5 C 129.461,136.451 129.295,137.118 134,138.5C 134.688,139.332 134.521,139.998 133.5,140.5C 125.869,139.39 119.702,142.057 115,148.5C 113.81,152.381 113.143,156.381 113,160.5C 112.333,159.833 111.667,159.167 111,158.5C 111.07,155.008 110.237,152.008 108.5,149.5C 108.892,147.821 109.392,146.154 110,144.5C 112.372,142.297 114.539,139.963 116.5,137.5C 116.833,137.5 117.167,137.5 117.5,137.5C 123.119,134.162 128.785,133.829 134.5,136.5 Z"/></g>
<g><path style="opacity:1" fill="#5de2e3" d="M 67.5,141.5 C 69.9423,142.719 72.2757,144.219 74.5,146C 71.9348,146.609 69.6015,146.109 67.5,144.5C 59.5995,140.881 51.9328,136.714 44.5,132C 39.8462,131.96 36.1795,130.126 33.5,126.5C 34,126.167 34.5,125.833 35,125.5C 38.6586,127.21 42.4919,128.543 46.5,129.5C 46.9767,130.478 47.6433,131.311 48.5,132C 54.5765,135.705 60.9099,138.872 67.5,141.5 Z"/></g>
<g><path style="opacity:1" fill="#6c6a7f" d="M 171.5,165.5 C 169.786,166.738 167.786,167.405 165.5,167.5C 162.695,166.23 160.028,165.23 157.5,164.5C 152.357,166.241 147.357,168.241 142.5,170.5C 138.186,169.527 134.353,170.527 131,173.5C 129.542,172.253 128.042,172.253 126.5,173.5C 124.556,172.199 122.556,171.199 120.5,170.5C 122.167,170.5 123.833,170.5 125.5,170.5C 129.198,170.448 132.865,170.114 136.5,169.5C 137.833,168.833 139.167,168.167 140.5,167.5C 141.873,167.657 143.207,167.49 144.5,167C 147.287,165.323 150.12,163.823 153,162.5C 155.481,163.299 158.314,163.466 161.5,163C 160.833,161.667 159.833,160.667 158.5,160C 161.079,157.297 162.079,154.297 161.5,151C 163.156,149.171 165.156,147.837 167.5,147C 167,146.5 166.5,146 166,145.5C 164.602,146.051 163.268,146.384 162,146.5C 156.667,143.833 151.333,141.167 146,138.5C 145.586,138.957 145.086,139.291 144.5,139.5C 142.768,136.481 140.601,134.481 138,133.5C 136.961,134.71 135.794,135.71 134.5,136.5C 128.785,133.829 123.119,134.162 117.5,137.5C 117.5,136.5 117.5,135.5 117.5,134.5C 122.516,132.94 127.849,131.94 133.5,131.5C 134.192,132.025 134.692,132.692 135,133.5C 137.571,132.755 140.071,132.421 142.5,132.5C 142.738,134.478 144.071,136.145 146.5,137.5C 147.086,137.291 147.586,136.957 148,136.5C 153.197,138.177 158.364,140.677 163.5,144C 165.441,144.743 167.274,144.576 169,143.5C 170.947,144.11 172.781,144.943 174.5,146C 172.673,146.899 171.34,148.233 170.5,150C 171.205,151.422 171.539,152.755 171.5,154C 169.819,155.945 169.152,157.945 169.5,160C 168.289,160.787 167.289,161.454 166.5,162C 167.77,163.775 169.436,164.942 171.5,165.5 Z"/></g>
<g><path style="opacity:1" fill="#252136" d="M 214.5,141.5 C 217.855,142.855 220.189,145.189 221.5,148.5C 219.856,148.714 218.356,148.38 217,147.5C 214.296,149.65 214.129,151.816 216.5,154C 215.427,156.183 215.26,158.683 216,161.5C 214.292,163.543 212.292,165.21 210,166.5C 209.667,167.5 209.333,168.5 209,169.5C 207.951,168.483 206.784,168.316 205.5,169C 206.28,170.073 206.113,171.24 205,172.5C 202.679,171.639 201.513,172.639 201.5,175.5C 204.381,176.274 207.048,177.607 209.5,179.5C 208.139,181.028 206.972,182.695 206,184.5C 205,183.5 204,182.5 203,181.5C 202.692,182.308 202.192,182.975 201.5,183.5C 199.581,184.011 197.915,183.344 196.5,181.5C 197.261,178.754 198.595,177.087 200.5,176.5C 197.381,174.274 194.048,172.607 190.5,171.5C 190.413,168.402 190.913,168.068 192,170.5C 192.667,169.167 193.333,167.833 194,166.5C 194.667,169.167 195.333,169.167 196,166.5C 196.333,167.167 196.667,167.833 197,168.5C 197.707,166.919 198.54,165.419 199.5,164C 198.833,163.667 198.167,163.333 197.5,163C 198.667,162.5 199.5,161.667 200,160.5C 200.333,161.167 200.667,161.833 201,162.5C 201.163,160.324 201.996,158.491 203.5,157C 202.288,154.577 200.954,152.244 199.5,150C 202.825,148.386 203.158,146.386 200.5,144C 203.896,143.421 207.396,142.255 211,140.5C 212.011,141.337 213.178,141.67 214.5,141.5 Z"/></g>
<g><path style="opacity:1" fill="#84cff6" d="M 235.5,159.5 C 234.047,160.825 234.381,161.658 236.5,162C 235.833,162.333 235.167,162.667 234.5,163C 238.744,165.052 239.41,167.886 236.5,171.5C 241.141,176.753 242.808,182.753 241.5,189.5C 239.983,189.511 238.816,190.177 238,191.5C 237.163,186.82 236.329,182.154 235.5,177.5C 239.102,177.322 239.102,176.322 235.5,174.5C 234.686,172.234 234.186,169.9 234,167.5C 233.667,167.833 233.333,168.167 233,168.5C 230.738,164.462 229.238,160.129 228.5,155.5C 227.5,155.5 226.5,155.5 225.5,155.5C 225.5,155.167 225.5,154.833 225.5,154.5C 224.026,149.26 221.859,144.26 219,139.5C 213.669,135.92 209.169,132.253 205.5,128.5C 206.222,128.082 206.722,127.416 207,126.5C 208.154,128.957 209.488,128.957 211,126.5C 210.878,130.663 213.045,133.163 217.5,134C 218.774,137.606 221.107,140.273 224.5,142C 224.167,142.333 223.833,142.667 223.5,143C 228.026,148.734 232.026,154.234 235.5,159.5 Z"/></g>
<g><path style="opacity:1" fill="#b3b3b7" d="M 134.5,136.5 C 136.46,138.21 138.627,138.543 141,137.5C 141.304,139.441 142.137,141.107 143.5,142.5C 148.14,146.319 153.473,148.152 159.5,148C 156.68,148.736 154.68,150.402 153.5,153C 154.634,154.016 154.301,154.683 152.5,155C 152.324,156.66 152.991,158.326 154.5,160C 148.721,160.529 144.054,163.029 140.5,167.5C 139.167,168.167 137.833,168.833 136.5,169.5C 138.745,166.749 141.245,164.083 144,161.5C 144.803,157.479 145.969,153.646 147.5,150C 145.888,149.28 144.388,149.446 143,150.5C 137.821,143.486 131.987,142.819 125.5,148.5C 122.978,151.188 120.644,154.021 118.5,157C 118.23,160.126 118.897,163.293 120.5,166.5C 122.419,167.612 124.086,168.946 125.5,170.5C 123.833,170.5 122.167,170.5 120.5,170.5C 116.935,169.255 113.935,167.255 111.5,164.5C 108.981,159.888 107.981,154.888 108.5,149.5C 110.237,152.008 111.07,155.008 111,158.5C 111.667,159.167 112.333,159.833 113,160.5C 113.143,156.381 113.81,152.381 115,148.5C 119.702,142.057 125.869,139.39 133.5,140.5C 134.521,139.998 134.688,139.332 134,138.5C 129.295,137.118 129.461,136.451 134.5,136.5 Z"/></g>
<g><path style="opacity:1" fill="#4a4559" d="M 144.5,120.5 C 145.469,121.309 146.302,122.309 147,123.5C 147.333,123.167 147.667,122.833 148,122.5C 147.064,127.826 149.23,130.326 154.5,130C 153.346,130.914 153.513,131.747 155,132.5C 155.333,131.833 155.667,131.167 156,130.5C 156.419,131.672 157.085,132.672 158,133.5C 159.537,133.913 161.204,133.913 163,133.5C 164.587,134.67 166.253,135.67 168,136.5C 168.333,136.167 168.667,135.833 169,135.5C 170.667,137.167 172.333,138.833 174,140.5C 174.333,140.167 174.667,139.833 175,139.5C 175.333,140.5 175.667,141.5 176,142.5C 179.574,141.559 183.241,140.893 187,140.5C 190.171,140.64 193.004,140.973 195.5,141.5C 195.291,142.086 194.957,142.586 194.5,143C 189.833,144.333 185.167,145.667 180.5,147C 181.875,150.908 181.208,154.908 178.5,159C 178.833,159.333 179.167,159.667 179.5,160C 178.161,162.622 176.494,164.289 174.5,165C 177.339,166.92 180.339,168.587 183.5,170C 182.747,171.487 181.914,171.654 181,170.5C 180.481,171.516 179.647,172.182 178.5,172.5C 174.214,170.881 170.047,169.881 166,169.5C 165,170.5 164,171.5 163,172.5C 161,172.5 159,172.5 157,172.5C 155.025,174.15 153.192,175.15 151.5,175.5C 149.565,174.85 147.565,174.517 145.5,174.5C 146.848,173.399 148.348,172.399 150,171.5C 150.333,171.833 150.667,172.167 151,172.5C 154.716,171.077 158.383,169.411 162,167.5C 162.986,168.171 164.153,168.171 165.5,167.5C 167.786,167.405 169.786,166.738 171.5,165.5C 171.047,164.542 170.381,163.708 169.5,163C 172.514,161.328 174.514,159.328 175.5,157C 175.043,156.586 174.709,156.086 174.5,155.5C 176.991,154.459 176.991,153.626 174.5,153C 177.167,152.333 177.167,151.667 174.5,151C 175.833,150.333 175.833,149.667 174.5,149C 179.664,144.301 178.664,142.468 171.5,143.5C 169.31,141.476 166.977,139.643 164.5,138C 163.551,137.383 162.718,137.549 162,138.5C 160.585,135.782 158.585,135.115 156,136.5C 154.295,134.023 152.295,132.689 150,132.5C 149,132.833 148,133.167 147,133.5C 146.667,131.167 146.333,128.833 146,126.5C 145.333,127.833 144.667,127.833 144,126.5C 143.333,129.167 142.667,129.167 142,126.5C 140.445,128.146 138.779,128.479 137,127.5C 135.867,129.211 134.367,129.711 132.5,129C 133.786,125.642 135.953,124.142 139,124.5C 140.309,122.109 141.309,122.109 142,124.5C 142.608,122.934 143.442,121.6 144.5,120.5 Z"/></g>
<g><path style="opacity:1" fill="#1a1928" d="M 221.5,148.5 C 222.449,150.777 223.782,152.777 225.5,154.5C 225.5,154.833 225.5,155.167 225.5,155.5C 227.454,160.742 229.954,165.742 233,170.5C 234.309,178.498 235.476,186.498 236.5,194.5C 233.399,199.84 232.732,205.507 234.5,211.5C 234.326,213.861 233.993,216.194 233.5,218.5C 232.833,219.5 232.167,220.5 231.5,221.5C 231.672,220.508 231.338,219.842 230.5,219.5C 230.399,209.148 230.733,198.815 231.5,188.5C 229.833,188.5 228.167,188.5 226.5,188.5C 227.167,187.5 227.833,186.5 228.5,185.5C 231.332,183.593 232.166,180.927 231,177.5C 228.67,175.453 226.17,175.12 223.5,176.5C 220.379,177.288 218.712,179.288 218.5,182.5C 217.5,182.5 216.5,182.5 215.5,182.5C 215.714,184.144 215.38,185.644 214.5,187C 215.416,187.278 216.082,187.778 216.5,188.5C 214.716,188.893 213.05,189.559 211.5,190.5C 209.937,188.296 208.437,188.63 207,191.5C 206.026,189.122 205.359,189.456 205,192.5C 204.667,191.5 204.333,190.5 204,189.5C 203.71,191.044 203.044,192.377 202,193.5C 199.861,193.457 197.694,193.123 195.5,192.5C 195.5,191.167 195.5,189.833 195.5,188.5C 194.167,188.5 192.833,188.5 191.5,188.5C 192.167,187.5 192.833,186.5 193.5,185.5C 194.6,184.395 195.267,183.062 195.5,181.5C 195.833,181.5 196.167,181.5 196.5,181.5C 197.915,183.344 199.581,184.011 201.5,183.5C 202.192,182.975 202.692,182.308 203,181.5C 204,182.5 205,183.5 206,184.5C 206.972,182.695 208.139,181.028 209.5,179.5C 207.048,177.607 204.381,176.274 201.5,175.5C 201.513,172.639 202.679,171.639 205,172.5C 206.113,171.24 206.28,170.073 205.5,169C 206.784,168.316 207.951,168.483 209,169.5C 209.333,168.5 209.667,167.5 210,166.5C 212.292,165.21 214.292,163.543 216,161.5C 215.26,158.683 215.427,156.183 216.5,154C 214.129,151.816 214.296,149.65 217,147.5C 218.356,148.38 219.856,148.714 221.5,148.5 Z"/></g>
<g><path style="opacity:1" fill="#e1e1e2" d="M 136.5,169.5 C 132.865,170.114 129.198,170.448 125.5,170.5C 124.086,168.946 122.419,167.612 120.5,166.5C 118.897,163.293 118.23,160.126 118.5,157C 120.644,154.021 122.978,151.188 125.5,148.5C 131.987,142.819 137.821,143.486 143,150.5C 144.388,149.446 145.888,149.28 147.5,150C 145.969,153.646 144.803,157.479 144,161.5C 141.245,164.083 138.745,166.749 136.5,169.5 Z"/></g>
<g><path style="opacity:1" fill="#8a8899" d="M 140.5,167.5 C 144.054,163.029 148.721,160.529 154.5,160C 152.991,158.326 152.324,156.66 152.5,155C 154.301,154.683 154.634,154.016 153.5,153C 154.68,150.402 156.68,148.736 159.5,148C 153.473,148.152 148.14,146.319 143.5,142.5C 142.137,141.107 141.304,139.441 141,137.5C 138.627,138.543 136.46,138.21 134.5,136.5C 135.794,135.71 136.961,134.71 138,133.5C 140.601,134.481 142.768,136.481 144.5,139.5C 145.086,139.291 145.586,138.957 146,138.5C 151.333,141.167 156.667,143.833 162,146.5C 163.268,146.384 164.602,146.051 166,145.5C 166.5,146 167,146.5 167.5,147C 165.156,147.837 163.156,149.171 161.5,151C 162.079,154.297 161.079,157.297 158.5,160C 159.833,160.667 160.833,161.667 161.5,163C 158.314,163.466 155.481,163.299 153,162.5C 150.12,163.823 147.287,165.323 144.5,167C 143.207,167.49 141.873,167.657 140.5,167.5 Z"/></g>
<g><path style="opacity:1" fill="#c6f3f4" d="M 124.5,124.5 C 124.5,125.5 124.5,126.5 124.5,127.5C 119.772,128.556 115.772,130.889 112.5,134.5C 110.209,135.951 108.043,137.618 106,139.5C 101.76,144.317 97.7597,149.317 94,154.5C 93.8871,156.974 92.8871,158.974 91,160.5C 90.5065,162.134 90.3398,163.801 90.5,165.5C 88.3885,170.278 87.0552,175.278 86.5,180.5C 85.6586,182.379 85.3253,184.379 85.5,186.5C 85.1667,186.5 84.8333,186.5 84.5,186.5C 83.0507,182.923 82.384,179.423 82.5,176C 84.4414,174.184 85.1081,172.184 84.5,170C 83.8333,169.667 83.1667,169.333 82.5,169C 83.7487,167.176 84.9153,167.343 86,169.5C 86.8915,166.147 85.7248,163.813 82.5,162.5C 88.3792,160.761 91.5458,156.428 92,149.5C 93.7583,148.531 94.2583,147.364 93.5,146C 94.1905,144.933 94.6905,143.766 95,142.5C 96.2975,143.784 97.4642,143.617 98.5,142C 96.339,140.236 96.1723,138.403 98,136.5C 100.417,138.022 102.75,137.356 105,134.5C 106.666,135.34 106.833,134.84 105.5,133C 107.587,132.208 109.421,131.041 111,129.5C 111.718,130.451 112.551,130.617 113.5,130C 112.137,127.871 112.471,127.371 114.5,128.5C 118.136,126.793 118.136,125.626 114.5,125C 117.803,123.388 121.136,123.222 124.5,124.5 Z"/></g>
<g><path style="opacity:1" fill="#4dbef3" d="M 239.5,156.5 C 242.304,157.112 245.304,157.112 248.5,156.5C 247.65,163.712 250.317,168.212 256.5,170C 255.833,170.333 255.167,170.667 254.5,171C 255.833,171.667 255.833,172.333 254.5,173C 257.096,174.797 256.763,176.131 253.5,177C 256.167,178.333 256.167,179.667 253.5,181C 253.435,183.83 253.435,186.663 253.5,189.5C 249.85,188.272 246.184,188.272 242.5,189.5C 242.167,189.5 241.833,189.5 241.5,189.5C 242.808,182.753 241.141,176.753 236.5,171.5C 239.41,167.886 238.744,165.052 234.5,163C 235.167,162.667 235.833,162.333 236.5,162C 234.381,161.658 234.047,160.825 235.5,159.5C 236.211,157.799 237.545,156.799 239.5,156.5 Z"/></g>
<g><path style="opacity:1" fill="#6e6e82" d="M 112.5,134.5 C 112.489,136.017 111.823,137.184 110.5,138C 112.545,138.49 114.545,138.323 116.5,137.5C 114.539,139.963 112.372,142.297 110,144.5C 109.392,146.154 108.892,147.821 108.5,149.5C 107.981,154.888 108.981,159.888 111.5,164.5C 109.7,165.605 108.533,164.939 108,162.5C 107.667,162.833 107.333,163.167 107,163.5C 106.424,161.148 104.924,160.148 102.5,160.5C 99.2979,160.86 96.2979,161.526 93.5,162.5C 92.2719,163.306 91.2719,164.306 90.5,165.5C 90.3398,163.801 90.5065,162.134 91,160.5C 92.8871,158.974 93.8871,156.974 94,154.5C 97.7597,149.317 101.76,144.317 106,139.5C 108.043,137.618 110.209,135.951 112.5,134.5 Z"/></g>
<g><path style="opacity:1" fill="#5a576b" d="M 111.5,164.5 C 113.935,167.255 116.935,169.255 120.5,170.5C 122.556,171.199 124.556,172.199 126.5,173.5C 128.042,172.253 129.542,172.253 131,173.5C 134.353,170.527 138.186,169.527 142.5,170.5C 147.357,168.241 152.357,166.241 157.5,164.5C 160.028,165.23 162.695,166.23 165.5,167.5C 164.153,168.171 162.986,168.171 162,167.5C 158.383,169.411 154.716,171.077 151,172.5C 150.667,172.167 150.333,171.833 150,171.5C 148.348,172.399 146.848,173.399 145.5,174.5C 145.5,175.167 145.167,175.5 144.5,175.5C 140.937,175.625 138.437,177.292 137,180.5C 136.667,179.833 136.333,179.167 136,178.5C 135.503,181.146 135.336,183.813 135.5,186.5C 134.523,183.713 134.19,180.713 134.5,177.5C 131.833,177.5 129.167,177.5 126.5,177.5C 126.5,186.5 126.5,195.5 126.5,204.5C 125.67,196.01 125.17,187.343 125,178.5C 124.83,189.341 124.33,200.008 123.5,210.5C 123.5,199.5 123.5,188.5 123.5,177.5C 120.833,177.5 118.167,177.5 115.5,177.5C 116.952,176.698 118.618,176.198 120.5,176C 118.36,175.027 116.693,173.527 115.5,171.5C 114.575,170.359 113.741,170.359 113,171.5C 109.961,168.377 106.628,166.377 103,165.5C 102.667,165.833 102.333,166.167 102,166.5C 101.385,164.884 100.385,163.551 99,162.5C 97.3745,162.854 95.5412,162.854 93.5,162.5C 96.2979,161.526 99.2979,160.86 102.5,160.5C 104.924,160.148 106.424,161.148 107,163.5C 107.333,163.167 107.667,162.833 108,162.5C 108.533,164.939 109.7,165.605 111.5,164.5 Z"/></g>
<g><path style="opacity:1" fill="#3e3a51" d="M 93.5,162.5 C 95.5412,162.854 97.3745,162.854 99,162.5C 100.385,163.551 101.385,164.884 102,166.5C 102.333,166.167 102.667,165.833 103,165.5C 106.628,166.377 109.961,168.377 113,171.5C 113.741,170.359 114.575,170.359 115.5,171.5C 116.693,173.527 118.36,175.027 120.5,176C 118.618,176.198 116.952,176.698 115.5,177.5C 115.828,188.346 115.494,199.013 114.5,209.5C 114.832,198.749 114.499,188.749 113.5,179.5C 111.284,180.203 109.451,181.536 108,183.5C 106.992,183.018 105.825,182.852 104.5,183C 103.258,179.643 102.424,179.81 102,183.5C 101.667,182.5 101.333,181.5 101,180.5C 100.333,181.833 99.6667,181.833 99,180.5C 98.6667,181.167 98.3333,181.833 98,182.5C 95.6328,179.303 92.9661,178.969 90,181.5C 88.8069,180.022 88.3069,178.688 88.5,177.5C 87.8243,178.602 87.1577,179.602 86.5,180.5C 87.0552,175.278 88.3885,170.278 90.5,165.5C 91.2719,164.306 92.2719,163.306 93.5,162.5 Z"/></g>
<g><path style="opacity:1" fill="#4baad4" d="M 313.5,165.5 C 320.491,194.587 318.157,222.92 306.5,250.5C 306.941,246.557 307.274,242.557 307.5,238.5C 310.276,238.911 310.943,238.078 309.5,236C 312.493,232.052 313.159,227.719 311.5,223C 316.837,208.105 317.67,192.938 314,177.5C 313.617,176.944 313.117,176.611 312.5,176.5C 312.301,173.989 311.968,171.822 311.5,170C 312.267,168.53 312.933,167.03 313.5,165.5 Z"/></g>
<g><path style="opacity:1" fill="#343049" d="M 151.5,119.5 C 151.348,121.242 151.348,123.076 151.5,125C 153.709,126.691 155.542,126.524 157,124.5C 157.918,126.632 159.251,127.299 161,126.5C 162.751,128.918 164.751,130.251 167,130.5C 167.333,129.833 167.667,129.167 168,128.5C 168.667,129.833 169.333,129.833 170,128.5C 170.667,129.833 171.333,131.167 172,132.5C 172.333,132.167 172.667,131.833 173,131.5C 175.684,134.567 178.35,136.9 181,138.5C 181.333,137.833 181.667,137.167 182,136.5C 182.359,139.544 183.026,139.878 184,137.5C 185.18,138.684 186.68,139.351 188.5,139.5C 192.173,139.047 195.84,138.547 199.5,138C 202.272,136.943 204.605,135.443 206.5,133.5C 210.052,135.263 212.719,137.93 214.5,141.5C 213.178,141.67 212.011,141.337 211,140.5C 207.396,142.255 203.896,143.421 200.5,144C 203.158,146.386 202.825,148.386 199.5,150C 200.954,152.244 202.288,154.577 203.5,157C 201.996,158.491 201.163,160.324 201,162.5C 200.667,161.833 200.333,161.167 200,160.5C 199.5,161.667 198.667,162.5 197.5,163C 198.167,163.333 198.833,163.667 199.5,164C 198.54,165.419 197.707,166.919 197,168.5C 196.667,167.833 196.333,167.167 196,166.5C 195.333,169.167 194.667,169.167 194,166.5C 193.333,167.833 192.667,169.167 192,170.5C 190.913,168.068 190.413,168.402 190.5,171.5C 194.048,172.607 197.381,174.274 200.5,176.5C 198.595,177.087 197.261,178.754 196.5,181.5C 196.167,181.5 195.833,181.5 195.5,181.5C 195.13,176.31 192.463,174.643 187.5,176.5C 184.663,176.729 181.663,176.896 178.5,177C 177.019,177.98 175.685,179.147 174.5,180.5C 173.158,179.098 172.324,179.431 172,181.5C 171.026,179.122 170.359,179.456 170,182.5C 169.333,179.833 168.667,179.833 168,182.5C 167.586,182.043 167.086,181.709 166.5,181.5C 164.491,183.795 162.325,185.128 160,185.5C 158.602,184.949 157.268,184.616 156,184.5C 155.333,187.167 154.667,187.167 154,184.5C 153.667,185.167 153.333,185.833 153,186.5C 152.292,185.619 151.458,184.953 150.5,184.5C 152.681,181.737 153.015,178.737 151.5,175.5C 153.192,175.15 155.025,174.15 157,172.5C 159,172.5 161,172.5 163,172.5C 164,171.5 165,170.5 166,169.5C 170.047,169.881 174.214,170.881 178.5,172.5C 179.647,172.182 180.481,171.516 181,170.5C 181.914,171.654 182.747,171.487 183.5,170C 180.339,168.587 177.339,166.92 174.5,165C 176.494,164.289 178.161,162.622 179.5,160C 179.167,159.667 178.833,159.333 178.5,159C 181.208,154.908 181.875,150.908 180.5,147C 185.167,145.667 189.833,144.333 194.5,143C 194.957,142.586 195.291,142.086 195.5,141.5C 193.004,140.973 190.171,140.64 187,140.5C 183.241,140.893 179.574,141.559 176,142.5C 175.667,141.5 175.333,140.5 175,139.5C 174.667,139.833 174.333,140.167 174,140.5C 172.333,138.833 170.667,137.167 169,135.5C 168.667,135.833 168.333,136.167 168,136.5C 166.253,135.67 164.587,134.67 163,133.5C 161.204,133.913 159.537,133.913 158,133.5C 157.085,132.672 156.419,131.672 156,130.5C 155.667,131.167 155.333,131.833 155,132.5C 153.513,131.747 153.346,130.914 154.5,130C 149.23,130.326 147.064,127.826 148,122.5C 147.667,122.833 147.333,123.167 147,123.5C 146.302,122.309 145.469,121.309 144.5,120.5C 146.806,120.007 149.139,119.674 151.5,119.5 Z"/></g>
<g><path style="opacity:1" fill="#f1f1f1" d="M 145.5,174.5 C 147.565,174.517 149.565,174.85 151.5,175.5C 153.015,178.737 152.681,181.737 150.5,184.5C 143.801,184.726 141.801,181.726 144.5,175.5C 145.167,175.5 145.5,175.167 145.5,174.5 Z"/></g>
<g><path style="opacity:1" fill="#f0f0f1" d="M 195.5,181.5 C 195.267,183.062 194.6,184.395 193.5,185.5C 188.167,186.167 185.833,183.833 186.5,178.5C 186.833,177.833 187.167,177.167 187.5,176.5C 192.463,174.643 195.13,176.31 195.5,181.5 Z"/></g>
<g><path style="opacity:1" fill="#efeff0" d="M 228.5,185.5 C 222.667,185.026 221,182.026 223.5,176.5C 226.17,175.12 228.67,175.453 231,177.5C 232.166,180.927 231.332,183.593 228.5,185.5 Z"/></g>
<g><path style="opacity:1" fill="#80b3ce" d="M 225.5,155.5 C 226.5,155.5 227.5,155.5 228.5,155.5C 229.238,160.129 230.738,164.462 233,168.5C 233.333,168.167 233.667,167.833 234,167.5C 234.186,169.9 234.686,172.234 235.5,174.5C 239.102,176.322 239.102,177.322 235.5,177.5C 236.329,182.154 237.163,186.82 238,191.5C 238.816,190.177 239.983,189.511 241.5,189.5C 241.833,189.5 242.167,189.5 242.5,189.5C 240.525,191.137 238.525,192.804 236.5,194.5C 235.476,186.498 234.309,178.498 233,170.5C 229.954,165.742 227.454,160.742 225.5,155.5 Z"/></g>
<g><path style="opacity:1" fill="#211d30" d="M 144.5,175.5 C 141.801,181.726 143.801,184.726 150.5,184.5C 151.458,184.953 152.292,185.619 153,186.5C 153.333,185.833 153.667,185.167 154,184.5C 154.667,187.167 155.333,187.167 156,184.5C 157.268,184.616 158.602,184.949 160,185.5C 162.325,185.128 164.491,183.795 166.5,181.5C 167.086,181.709 167.586,182.043 168,182.5C 168.667,179.833 169.333,179.833 170,182.5C 170.359,179.456 171.026,179.122 172,181.5C 172.324,179.431 173.158,179.098 174.5,180.5C 175.685,179.147 177.019,177.98 178.5,177C 181.663,176.896 184.663,176.729 187.5,176.5C 187.167,177.167 186.833,177.833 186.5,178.5C 185.266,180.66 183.933,182.827 182.5,185C 184.373,185.953 184.706,187.12 183.5,188.5C 180.833,188.5 178.167,188.5 175.5,188.5C 172.643,190.758 169.643,192.758 166.5,194.5C 165.87,192.25 164.87,190.25 163.5,188.5C 160.645,187.197 157.645,187.197 154.5,188.5C 154.624,189.107 154.957,189.44 155.5,189.5C 155.5,189.833 155.5,190.167 155.5,190.5C 154.5,190.5 153.5,190.5 152.5,190.5C 152.5,189.5 152.5,188.5 152.5,187.5C 149.5,187.5 146.5,187.5 143.5,187.5C 143.5,190.167 143.5,192.833 143.5,195.5C 143.167,195.5 142.833,195.5 142.5,195.5C 142.167,195.5 141.833,195.5 141.5,195.5C 141.5,192.5 141.5,189.5 141.5,186.5C 139.5,186.5 137.5,186.5 135.5,186.5C 135.336,183.813 135.503,181.146 136,178.5C 136.333,179.167 136.667,179.833 137,180.5C 138.437,177.292 140.937,175.625 144.5,175.5 Z"/></g>
<g><path style="opacity:1" fill="#2b273a" d="M 113.5,179.5 C 111.473,182.194 109.139,184.527 106.5,186.5C 105.209,186.263 104.209,186.596 103.5,187.5C 103.822,193.358 103.489,199.025 102.5,204.5C 102.666,199.156 102.499,193.823 102,188.5C 99.3333,192.5 96,195.833 92,198.5C 91.5045,200.473 91.3379,202.473 91.5,204.5C 90.5104,198.69 90.1771,192.69 90.5,186.5C 88.8333,186.5 87.1667,186.5 85.5,186.5C 85.3253,184.379 85.6586,182.379 86.5,180.5C 87.1577,179.602 87.8243,178.602 88.5,177.5C 88.3069,178.688 88.8069,180.022 90,181.5C 92.9661,178.969 95.6328,179.303 98,182.5C 98.3333,181.833 98.6667,181.167 99,180.5C 99.6667,181.833 100.333,181.833 101,180.5C 101.333,181.5 101.667,182.5 102,183.5C 102.424,179.81 103.258,179.643 104.5,183C 105.825,182.852 106.992,183.018 108,183.5C 109.451,181.536 111.284,180.203 113.5,179.5 Z"/></g>
<g><path style="opacity:1" fill="#fdfdfd" d="M 115.5,177.5 C 118.167,177.5 120.833,177.5 123.5,177.5C 123.5,188.5 123.5,199.5 123.5,210.5C 123.5,212.833 123.5,215.167 123.5,217.5C 120.5,217.5 117.5,217.5 114.5,217.5C 114.5,214.833 114.5,212.167 114.5,209.5C 115.494,199.013 115.828,188.346 115.5,177.5 Z"/></g>
<g><path style="opacity:1" fill="#f9f9f9" d="M 135.5,186.5 C 137.5,186.5 139.5,186.5 141.5,186.5C 141.5,189.5 141.5,192.5 141.5,195.5C 139.167,195.5 136.833,195.5 134.5,195.5C 134.19,198.713 134.523,201.713 135.5,204.5C 136.085,206.922 137.585,208.589 140,209.5C 140.498,212.482 140.665,215.482 140.5,218.5C 132.152,217.486 127.486,212.819 126.5,204.5C 126.5,195.5 126.5,186.5 126.5,177.5C 129.167,177.5 131.833,177.5 134.5,177.5C 134.19,180.713 134.523,183.713 135.5,186.5 Z"/></g>
<g><path style="opacity:1" fill="#fafcfc" d="M 53.5,188.5 C 53.7352,189.097 54.2352,189.43 55,189.5C 60.8848,185.832 67.0515,185.498 73.5,188.5C 74.1667,189.833 75.1667,190.833 76.5,191.5C 79.2432,197.465 80.2432,203.799 79.5,210.5C 79.5,212.833 79.5,215.167 79.5,217.5C 76.5,217.5 73.5,217.5 70.5,217.5C 70.6662,211.158 70.4995,204.825 70,198.5C 65.8343,194.267 62.3343,194.601 59.5,199.5C 59.1474,205.735 58.1474,211.735 56.5,217.5C 54.1667,217.5 51.8333,217.5 49.5,217.5C 49.6663,210.825 49.4996,204.158 49,197.5C 44.5182,193.275 41.0182,193.942 38.5,199.5C 37.5233,202.287 37.19,205.287 37.5,208.5C 37.5,211.167 37.5,213.833 37.5,216.5C 34.5,216.5 31.5,216.5 28.5,216.5C 29.2567,206.518 29.59,196.518 29.5,186.5C 34.3763,186.046 39.3763,185.712 44.5,185.5C 47.6608,185.988 50.6608,186.988 53.5,188.5 Z"/></g>
<g><path style="opacity:1" fill="#fafafa" d="M 82.5,186.5 C 83.1667,186.5 83.8333,186.5 84.5,186.5C 84.8333,186.5 85.1667,186.5 85.5,186.5C 87.1667,186.5 88.8333,186.5 90.5,186.5C 90.1771,192.69 90.5104,198.69 91.5,204.5C 91.9564,207.286 93.6231,208.619 96.5,208.5C 99.5495,208.648 101.549,207.314 102.5,204.5C 103.489,199.025 103.822,193.358 103.5,187.5C 106.167,187.5 108.833,187.5 111.5,187.5C 111.5,195.167 111.5,202.833 111.5,210.5C 111.5,213.167 111.5,215.833 111.5,218.5C 105.13,217.623 98.797,217.456 92.5,218C 90.6125,216.606 88.6125,215.44 86.5,214.5C 84.8196,212.473 83.6529,210.139 83,207.5C 82.5004,200.508 82.3337,193.508 82.5,186.5 Z"/></g>
<g><path style="opacity:1" fill="#569497" d="M 29.5,186.5 C 29.59,196.518 29.2567,206.518 28.5,216.5C 31.5,216.5 34.5,216.5 37.5,216.5C 36.3065,217.272 35.3065,218.272 34.5,219.5C 31.4816,219.665 28.4816,219.498 25.5,219C 25.2298,209.634 25.5631,199.8 26.5,189.5C 27.1667,188.167 28.1667,187.167 29.5,186.5 Z"/></g>
<g><path style="opacity:1" fill="#f8f9fa" d="M 253.5,189.5 C 256.112,190.779 258.445,192.445 260.5,194.5C 266.078,205.524 263.412,214.024 252.5,220C 244.567,221.2 238.567,218.366 234.5,211.5C 232.732,205.507 233.399,199.84 236.5,194.5C 238.525,192.804 240.525,191.137 242.5,189.5C 246.184,188.272 249.85,188.272 253.5,189.5 Z"/></g>
<g><path style="opacity:1" fill="#fbfbfb" d="M 226.5,188.5 C 228.167,188.5 229.833,188.5 231.5,188.5C 230.733,198.815 230.399,209.148 230.5,219.5C 227.833,219.5 225.167,219.5 222.5,219.5C 222.5,209.167 222.5,198.833 222.5,188.5C 223.833,188.5 225.167,188.5 226.5,188.5 Z"/></g>
<g><path style="opacity:1" fill="#f8fbfb" d="M 294.5,202.5 C 294.823,209.022 294.49,215.355 293.5,221.5C 290.833,221.5 288.167,221.5 285.5,221.5C 285.666,214.825 285.5,208.158 285,201.5C 282.421,199.653 279.588,199.153 276.5,200C 275.177,200.816 274.511,201.983 274.5,203.5C 273.511,208.975 273.178,214.642 273.5,220.5C 271.5,220.5 269.5,220.5 267.5,220.5C 266.5,220.5 265.5,220.5 264.5,220.5C 264.5,217.833 264.5,215.167 264.5,212.5C 265.492,205.352 265.825,198.019 265.5,190.5C 270.071,189.847 274.738,189.513 279.5,189.5C 287.653,190.382 292.653,194.716 294.5,202.5 Z"/></g>
<g><path style="opacity:1" fill="#50abaf" d="M 26.5,189.5 C 25.5631,199.8 25.2298,209.634 25.5,219C 28.4816,219.498 31.4816,219.665 34.5,219.5C 32.3239,221.515 29.8239,223.182 27,224.5C 25.108,223.87 23.4413,222.87 22,221.5C 22.1959,212.82 22.0292,204.653 21.5,197C 22.4123,194.749 23.4123,192.583 24.5,190.5C 25.1667,190.167 25.8333,189.833 26.5,189.5 Z"/></g>
<g><path style="opacity:1" fill="#76989c" d="M 82.5,186.5 C 82.3337,193.508 82.5004,200.508 83,207.5C 83.6529,210.139 84.8196,212.473 86.5,214.5C 87.9657,219.183 89.299,223.85 90.5,228.5C 89.8333,227.833 89.1667,227.167 88.5,226.5C 87.3995,225.395 86.7329,224.062 86.5,222.5C 86.5086,220.692 86.0086,219.025 85,217.5C 84.6667,217.833 84.3333,218.167 84,218.5C 81.8865,216.729 82.0532,215.229 84.5,214C 82.3676,213.082 81.701,211.749 82.5,210C 81.2805,208.205 80.2805,208.372 79.5,210.5C 80.2432,203.799 79.2432,197.465 76.5,191.5C 78.5,189.833 80.5,188.167 82.5,186.5 Z"/></g>
<g><path style="opacity:1" fill="#0b0912" d="M 102.5,204.5 C 101.549,207.314 99.5495,208.648 96.5,208.5C 93.6231,208.619 91.9564,207.286 91.5,204.5C 91.3379,202.473 91.5045,200.473 92,198.5C 96,195.833 99.3333,192.5 102,188.5C 102.499,193.823 102.666,199.156 102.5,204.5 Z"/></g>
<g><path style="opacity:1" fill="#5b9498" d="M 56.5,217.5 C 56.5299,218.497 56.0299,219.164 55,219.5C 53.0786,220.19 51.2453,220.524 49.5,220.5C 47.8035,219.636 46.6368,218.303 46,216.5C 42.8897,217.673 42.723,217.173 45.5,215C 43.1088,213.691 43.1088,212.691 45.5,212C 44.8333,211.667 44.1667,211.333 43.5,211C 46.2796,207.573 45.6129,204.74 41.5,202.5C 42.8549,201.325 42.6883,200.325 41,199.5C 40.0228,200.774 39.1894,200.774 38.5,199.5C 41.0182,193.942 44.5182,193.275 49,197.5C 49.4996,204.158 49.6663,210.825 49.5,217.5C 51.8333,217.5 54.1667,217.5 56.5,217.5 Z"/></g>
<g><path style="opacity:1" fill="#56999d" d="M 79.5,210.5 C 80.2805,208.372 81.2805,208.205 82.5,210C 81.701,211.749 82.3676,213.082 84.5,214C 82.0532,215.229 81.8865,216.729 84,218.5C 84.3333,218.167 84.6667,217.833 85,217.5C 86.0086,219.025 86.5086,220.692 86.5,222.5C 85.7784,222.918 85.2784,223.584 85,224.5C 83.3958,223.313 82.2291,221.313 81.5,218.5C 80.8027,220.385 79.8027,220.718 78.5,219.5C 76.6969,220.137 75.3636,221.303 74.5,223C 72.2381,223.642 70.0715,224.475 68,225.5C 66.1667,224.333 64.6667,222.833 63.5,221C 64.4219,218.799 64.4219,216.465 63.5,214C 63.7642,211.272 64.7642,208.939 66.5,207C 64.6794,204.756 62.346,203.59 59.5,203.5C 59.5,202.167 59.5,200.833 59.5,199.5C 62.3343,194.601 65.8343,194.267 70,198.5C 70.4995,204.825 70.6662,211.158 70.5,217.5C 73.5,217.5 76.5,217.5 79.5,217.5C 79.5,215.167 79.5,212.833 79.5,210.5 Z"/></g>
<g><path style="opacity:1" fill="#050408" d="M 223.5,176.5 C 221,182.026 222.667,185.026 228.5,185.5C 227.833,186.5 227.167,187.5 226.5,188.5C 225.167,188.5 223.833,188.5 222.5,188.5C 222.5,198.833 222.5,209.167 222.5,219.5C 225.167,219.5 227.833,219.5 230.5,219.5C 231.338,219.842 231.672,220.508 231.5,221.5C 230.815,223.414 230.315,225.414 230,227.5C 225.987,232.718 222.82,238.385 220.5,244.5C 212.825,251.326 204.825,257.659 196.5,263.5C 195.391,263.557 194.391,263.89 193.5,264.5C 191.03,264.654 189.03,265.654 187.5,267.5C 160.058,277.373 135.058,273.373 112.5,255.5C 108.255,251.759 104.089,247.759 100,243.5C 96.8087,238.436 93.6421,233.436 90.5,228.5C 89.299,223.85 87.9657,219.183 86.5,214.5C 88.6125,215.44 90.6125,216.606 92.5,218C 98.797,217.456 105.13,217.623 111.5,218.5C 111.5,215.833 111.5,213.167 111.5,210.5C 112.492,202.684 112.826,194.684 112.5,186.5C 110.5,186.5 108.5,186.5 106.5,186.5C 109.139,184.527 111.473,182.194 113.5,179.5C 114.499,188.749 114.832,198.749 114.5,209.5C 114.5,212.167 114.5,214.833 114.5,217.5C 117.5,217.5 120.5,217.5 123.5,217.5C 123.5,215.167 123.5,212.833 123.5,210.5C 124.33,200.008 124.83,189.341 125,178.5C 125.17,187.343 125.67,196.01 126.5,204.5C 127.486,212.819 132.152,217.486 140.5,218.5C 140.665,215.482 140.498,212.482 140,209.5C 137.585,208.589 136.085,206.922 135.5,204.5C 135.5,201.833 135.5,199.167 135.5,196.5C 137.735,196.795 139.735,196.461 141.5,195.5C 141.833,195.5 142.167,195.5 142.5,195.5C 142.5,203.5 142.5,211.5 142.5,219.5C 145.833,219.5 149.167,219.5 152.5,219.5C 152.5,211.5 152.5,203.5 152.5,195.5C 152.5,193.833 152.5,192.167 152.5,190.5C 153.5,190.5 154.5,190.5 155.5,190.5C 158.093,197.779 160.593,205.112 163,212.5C 168.705,218.974 175.872,221.307 184.5,219.5C 184.828,208.986 184.494,198.653 183.5,188.5C 184.706,187.12 184.373,185.953 182.5,185C 183.933,182.827 185.266,180.66 186.5,178.5C 185.833,183.833 188.167,186.167 193.5,185.5C 192.833,186.5 192.167,187.5 191.5,188.5C 189.833,188.5 188.167,188.5 186.5,188.5C 186.5,198.833 186.5,209.167 186.5,219.5C 189.287,220.477 192.287,220.81 195.5,220.5C 195.5,212.5 195.5,204.5 195.5,196.5C 195.5,195.167 195.5,193.833 195.5,192.5C 197.694,193.123 199.861,193.457 202,193.5C 203.044,192.377 203.71,191.044 204,189.5C 204.333,190.5 204.667,191.5 205,192.5C 205.359,189.456 206.026,189.122 207,191.5C 208.437,188.63 209.937,188.296 211.5,190.5C 205.878,195.076 202.878,201.076 202.5,208.5C 201.15,209.95 199.484,210.617 197.5,210.5C 197.5,213.833 197.5,217.167 197.5,220.5C 207.725,218.432 213.225,212.099 214,201.5C 214.759,199.365 216.259,198.032 218.5,197.5C 219.484,194.572 219.817,191.572 219.5,188.5C 218.5,188.5 217.5,188.5 216.5,188.5C 216.082,187.778 215.416,187.278 214.5,187C 215.38,185.644 215.714,184.144 215.5,182.5C 216.5,182.5 217.5,182.5 218.5,182.5C 218.712,179.288 220.379,177.288 223.5,176.5 Z"/></g>
<g><path style="opacity:1" fill="#615e6d" d="M 141.5,195.5 C 139.735,196.461 137.735,196.795 135.5,196.5C 135.5,199.167 135.5,201.833 135.5,204.5C 134.523,201.713 134.19,198.713 134.5,195.5C 136.833,195.5 139.167,195.5 141.5,195.5 Z"/></g>
<g><path style="opacity:1" fill="#f0eff0" d="M 216.5,188.5 C 217.5,188.5 218.5,188.5 219.5,188.5C 219.817,191.572 219.484,194.572 218.5,197.5C 216.259,198.032 214.759,199.365 214,201.5C 213.225,212.099 207.725,218.432 197.5,220.5C 197.5,217.167 197.5,213.833 197.5,210.5C 199.484,210.617 201.15,209.95 202.5,208.5C 202.878,201.076 205.878,195.076 211.5,190.5C 213.05,189.559 214.716,188.893 216.5,188.5 Z"/></g>
<g><path style="opacity:1" fill="#fbfbfb" d="M 191.5,188.5 C 192.833,188.5 194.167,188.5 195.5,188.5C 195.5,189.833 195.5,191.167 195.5,192.5C 195.5,193.833 195.5,195.167 195.5,196.5C 194.508,203.982 194.175,211.648 194.5,219.5C 191.833,219.5 189.167,219.5 186.5,219.5C 186.5,209.167 186.5,198.833 186.5,188.5C 188.167,188.5 189.833,188.5 191.5,188.5 Z"/></g>
<g><path style="opacity:1" fill="#f6f6f6" d="M 163.5,188.5 C 164.87,190.25 165.87,192.25 166.5,194.5C 167.697,198.922 169.197,203.256 171,207.5C 172.11,209.037 173.61,209.703 175.5,209.5C 175.5,202.5 175.5,195.5 175.5,188.5C 178.167,188.5 180.833,188.5 183.5,188.5C 184.494,198.653 184.828,208.986 184.5,219.5C 175.872,221.307 168.705,218.974 163,212.5C 160.593,205.112 158.093,197.779 155.5,190.5C 155.5,190.167 155.5,189.833 155.5,189.5C 157.948,188.527 160.615,188.194 163.5,188.5 Z"/></g>
<g><path style="opacity:1" fill="#07060f" d="M 175.5,188.5 C 175.5,195.5 175.5,202.5 175.5,209.5C 173.61,209.703 172.11,209.037 171,207.5C 169.197,203.256 167.697,198.922 166.5,194.5C 169.643,192.758 172.643,190.758 175.5,188.5 Z"/></g>
<g><path style="opacity:1" fill="#fbfbfb" d="M 152.5,190.5 C 152.5,192.167 152.5,193.833 152.5,195.5C 151.508,202.982 151.175,210.648 151.5,218.5C 148.833,218.5 146.167,218.5 143.5,218.5C 143.5,210.833 143.5,203.167 143.5,195.5C 143.5,192.833 143.5,190.167 143.5,187.5C 146.5,187.5 149.5,187.5 152.5,187.5C 152.5,188.5 152.5,189.5 152.5,190.5 Z"/></g>
<g><path style="opacity:1" fill="#84818d" d="M 163.5,188.5 C 160.615,188.194 157.948,188.527 155.5,189.5C 154.957,189.44 154.624,189.107 154.5,188.5C 157.645,187.197 160.645,187.197 163.5,188.5 Z"/></g>
<g><path style="opacity:1" fill="#377998" d="M 246.5,197.5 C 254.89,199.042 256.557,203.208 251.5,210C 243.805,211.509 240.972,208.342 243,200.5C 244.145,199.364 245.312,198.364 246.5,197.5 Z"/></g>
<g><path style="opacity:1" fill="#5f5c6d" d="M 103.5,187.5 C 104.209,186.596 105.209,186.263 106.5,186.5C 108.5,186.5 110.5,186.5 112.5,186.5C 112.826,194.684 112.492,202.684 111.5,210.5C 111.5,202.833 111.5,195.167 111.5,187.5C 108.833,187.5 106.167,187.5 103.5,187.5 Z"/></g>
<g><path style="opacity:1" fill="#72a5b0" d="M 263.5,191.5 C 263.842,190.662 264.508,190.328 265.5,190.5C 265.825,198.019 265.492,205.352 264.5,212.5C 264.825,205.313 264.491,198.313 263.5,191.5 Z"/></g>
<g><path style="opacity:1" fill="#03648c" d="M 293.5,221.5 C 292.833,222.833 291.833,223.833 290.5,224.5C 288.144,225.572 285.978,226.238 284,226.5C 282.833,225.333 281.667,224.167 280.5,223C 281.203,217.614 281.536,212.28 281.5,207C 279.394,204.609 277.06,203.442 274.5,203.5C 274.511,201.983 275.177,200.816 276.5,200C 279.588,199.153 282.421,199.653 285,201.5C 285.5,208.158 285.666,214.825 285.5,221.5C 288.167,221.5 290.833,221.5 293.5,221.5 Z"/></g>
<g><path style="opacity:1" fill="#1089bc" d="M 274.5,203.5 C 277.06,203.442 279.394,204.609 281.5,207C 281.536,212.28 281.203,217.614 280.5,223C 281.667,224.167 282.833,225.333 284,226.5C 285.978,226.238 288.144,225.572 290.5,224.5C 287.067,229.429 282.567,233.096 277,235.5C 274.966,235.646 273.299,234.98 272,233.5C 271.959,231.284 271.792,229.118 271.5,227C 269.934,226.235 268.601,226.402 267.5,227.5C 264.42,226.304 261.587,226.304 259,227.5C 258.258,224.909 257.758,222.576 257.5,220.5C 252.632,224.29 247.465,227.624 242,230.5C 240.989,229.663 239.822,229.33 238.5,229.5C 238.047,228.542 237.381,227.708 236.5,227C 238.262,225.238 238.928,223.405 238.5,221.5C 239.268,222.263 239.768,223.263 240,224.5C 240.333,223.833 240.667,223.167 241,222.5C 243.54,223.543 245.874,224.209 248,224.5C 252.523,222.648 256.523,219.982 260,216.5C 260.205,218.582 260.038,220.749 259.5,223C 260.167,223.667 260.833,224.333 261.5,225C 265.77,225.997 269.436,224.997 272.5,222C 270.618,221.802 268.952,221.302 267.5,220.5C 269.5,220.5 271.5,220.5 273.5,220.5C 273.178,214.642 273.511,208.975 274.5,203.5 Z"/></g>
<g><path style="opacity:1" fill="#1e698d" d="M 263.5,191.5 C 264.491,198.313 264.825,205.313 264.5,212.5C 264.5,215.167 264.5,217.833 264.5,220.5C 265.5,220.5 266.5,220.5 267.5,220.5C 268.952,221.302 270.618,221.802 272.5,222C 269.436,224.997 265.77,225.997 261.5,225C 260.833,224.333 260.167,223.667 259.5,223C 260.038,220.749 260.205,218.582 260,216.5C 256.523,219.982 252.523,222.648 248,224.5C 245.874,224.209 243.54,223.543 241,222.5C 240.667,223.167 240.333,223.833 240,224.5C 239.768,223.263 239.268,222.263 238.5,221.5C 236.39,220.547 235.223,218.881 235,216.5C 234.722,217.416 234.222,218.082 233.5,218.5C 233.993,216.194 234.326,213.861 234.5,211.5C 238.567,218.366 244.567,221.2 252.5,220C 263.412,214.024 266.078,205.524 260.5,194.5C 261.167,193.167 262.167,192.167 263.5,191.5 Z"/></g>
<g><path style="opacity:1" fill="#6cc5c5" d="M 38.5,199.5 C 39.1894,200.774 40.0228,200.774 41,199.5C 42.6883,200.325 42.8549,201.325 41.5,202.5C 45.6129,204.74 46.2796,207.573 43.5,211C 44.1667,211.333 44.8333,211.667 45.5,212C 43.1088,212.691 43.1088,213.691 45.5,215C 42.723,217.173 42.8897,217.673 46,216.5C 46.6368,218.303 47.8035,219.636 49.5,220.5C 51.2453,220.524 53.0786,220.19 55,219.5C 56.0299,219.164 56.5299,218.497 56.5,217.5C 58.1474,211.735 59.1474,205.735 59.5,199.5C 59.5,200.833 59.5,202.167 59.5,203.5C 62.346,203.59 64.6794,204.756 66.5,207C 64.7642,208.939 63.7642,211.272 63.5,214C 64.4219,216.465 64.4219,218.799 63.5,221C 64.6667,222.833 66.1667,224.333 68,225.5C 70.0715,224.475 72.2381,223.642 74.5,223C 75.3636,221.303 76.6969,220.137 78.5,219.5C 79.8027,220.718 80.8027,220.385 81.5,218.5C 82.2291,221.313 83.3958,223.313 85,224.5C 85.2784,223.584 85.7784,222.918 86.5,222.5C 86.7329,224.062 87.3995,225.395 88.5,226.5C 88.1667,226.5 87.8333,226.5 87.5,226.5C 86.7677,227.808 85.9344,229.142 85,230.5C 80.6345,229.884 76.8012,228.218 73.5,225.5C 69.8588,225.635 67.3588,227.301 66,230.5C 64.9125,228.068 64.4125,228.402 64.5,231.5C 64.1667,231.5 63.8333,231.5 63.5,231.5C 63.2792,228.903 62.7792,228.903 62,231.5C 61,230.167 60,230.167 59,231.5C 57.8333,230.333 56.6667,229.167 55.5,228C 57.8912,226.691 57.8912,225.691 55.5,225C 56.1667,224.667 56.8333,224.333 57.5,224C 57.0698,223.08 56.7365,222.247 56.5,221.5C 52.3386,223.613 48.1719,224.946 44,225.5C 41.7622,222.195 41.2622,218.361 42.5,214C 41.8693,210.471 41.036,206.971 40,203.5C 39.0147,205.175 38.1814,206.842 37.5,208.5C 37.19,205.287 37.5233,202.287 38.5,199.5 Z"/></g>
<g><path style="opacity:1" fill="#5e5a67" d="M 142.5,195.5 C 142.833,195.5 143.167,195.5 143.5,195.5C 143.5,203.167 143.5,210.833 143.5,218.5C 146.167,218.5 148.833,218.5 151.5,218.5C 151.175,210.648 151.508,202.982 152.5,195.5C 152.5,203.5 152.5,211.5 152.5,219.5C 149.167,219.5 145.833,219.5 142.5,219.5C 142.5,211.5 142.5,203.5 142.5,195.5 Z"/></g>
<g><path style="opacity:1" fill="#605c69" d="M 195.5,196.5 C 195.5,204.5 195.5,212.5 195.5,220.5C 192.287,220.81 189.287,220.477 186.5,219.5C 189.167,219.5 191.833,219.5 194.5,219.5C 194.175,211.648 194.508,203.982 195.5,196.5 Z"/></g>
<g><path style="opacity:1" fill="#65dada" d="M 24.5,190.5 C 23.4123,192.583 22.4123,194.749 21.5,197C 22.0292,204.653 22.1959,212.82 22,221.5C 23.4413,222.87 25.108,223.87 27,224.5C 29.8239,223.182 32.3239,221.515 34.5,219.5C 35.3065,218.272 36.3065,217.272 37.5,216.5C 37.5,213.833 37.5,211.167 37.5,208.5C 38.1814,206.842 39.0147,205.175 40,203.5C 41.036,206.971 41.8693,210.471 42.5,214C 41.2622,218.361 41.7622,222.195 44,225.5C 48.1719,224.946 52.3386,223.613 56.5,221.5C 56.7365,222.247 57.0698,223.08 57.5,224C 56.8333,224.333 56.1667,224.667 55.5,225C 57.8912,225.691 57.8912,226.691 55.5,228C 56.6667,229.167 57.8333,230.333 59,231.5C 60,230.167 61,230.167 62,231.5C 62.7792,228.903 63.2792,228.903 63.5,231.5C 62.6182,233.084 61.7848,234.751 61,236.5C 60.6121,235.572 59.9454,234.905 59,234.5C 57.4559,235.024 56.1226,235.024 55,234.5C 52.9782,232.478 50.9782,230.478 49,228.5C 47.5272,228.903 46.1939,229.57 45,230.5C 44.6667,230.167 44.3333,229.833 44,229.5C 42.7485,231.001 41.7485,232.668 41,234.5C 39.3033,232.075 37.3033,230.742 35,230.5C 34.2797,228.888 34.4464,227.388 35.5,226C 34.9288,224.795 34.2621,223.628 33.5,222.5C 31.8333,223.333 30.1667,224.167 28.5,225C 27,227.833 24.8333,230 22,231.5C 21,231.5 20,231.5 19,231.5C 18.3333,234.167 17.6667,234.167 17,231.5C 16.6667,232.167 16.3333,232.833 16,233.5C 15.6232,232.058 14.7899,231.058 13.5,230.5C 11.5185,221.943 10.1852,213.277 9.5,204.5C 14.4477,199.889 19.4477,195.223 24.5,190.5 Z"/></g>
<g><path style="opacity:1" fill="#5e97b1" d="M 238.5,221.5 C 238.928,223.405 238.262,225.238 236.5,227C 237.381,227.708 238.047,228.542 238.5,229.5C 236.897,229.312 235.563,229.812 234.5,231C 235.167,231.333 235.833,231.667 236.5,232C 234.619,231.904 232.953,232.071 231.5,232.5C 230.833,232.5 230.5,232.833 230.5,233.5C 229.732,234.263 229.232,235.263 229,236.5C 228.667,235.5 228.333,234.5 228,233.5C 226.828,235.521 225.995,237.187 225.5,238.5C 223.833,240.5 222.167,242.5 220.5,244.5C 222.82,238.385 225.987,232.718 230,227.5C 230.315,225.414 230.815,223.414 231.5,221.5C 232.167,220.5 232.833,219.5 233.5,218.5C 234.222,218.082 234.722,217.416 235,216.5C 235.223,218.881 236.39,220.547 238.5,221.5 Z"/></g>
<g><path style="opacity:1" fill="#7be7e5" d="M 87.5,226.5 C 87.2356,228.173 87.7356,229.84 89,231.5C 89.5556,229.405 90.0556,229.238 90.5,231C 90.2568,231.902 89.9234,232.735 89.5,233.5C 89.2969,235.044 88.6302,236.378 87.5,237.5C 87.7093,238.086 88.0426,238.586 88.5,239C 87.2899,240.039 86.2899,241.206 85.5,242.5C 84.1411,243.007 83.1411,244.007 82.5,245.5C 81.2638,246.246 79.9305,246.579 78.5,246.5C 78.7852,244.712 78.4519,243.045 77.5,241.5C 72.8105,239.448 71.8105,236.948 74.5,234C 73.3333,233.5 72.5,232.667 72,231.5C 71.6667,232.5 71.3333,233.5 71,234.5C 70.5291,232.754 69.8624,231.087 69,229.5C 67.8904,231.037 66.3904,231.703 64.5,231.5C 64.4125,228.402 64.9125,228.068 66,230.5C 67.3588,227.301 69.8588,225.635 73.5,225.5C 76.8012,228.218 80.6345,229.884 85,230.5C 85.9344,229.142 86.7677,227.808 87.5,226.5 Z"/></g>
<g><path style="opacity:1" fill="#9fcccf" d="M 87.5,226.5 C 87.8333,226.5 88.1667,226.5 88.5,226.5C 89.1667,227.167 89.8333,227.833 90.5,228.5C 93.6421,233.436 96.8087,238.436 100,243.5C 104.089,247.759 108.255,251.759 112.5,255.5C 110.565,254.85 108.565,254.517 106.5,254.5C 105.221,250.698 102.888,247.531 99.5,245C 98.552,244.517 97.552,244.351 96.5,244.5C 93.8885,240.928 91.5552,237.261 89.5,233.5C 89.9234,232.735 90.2568,231.902 90.5,231C 90.0556,229.238 89.5556,229.405 89,231.5C 87.7356,229.84 87.2356,228.173 87.5,226.5 Z"/></g>
<g><path style="opacity:1" fill="#1398d1" d="M 267.5,227.5 C 261.827,233.562 255.827,238.562 249.5,242.5C 246.608,241.606 243.941,240.272 241.5,238.5C 238.429,236.102 235.095,234.102 231.5,232.5C 232.953,232.071 234.619,231.904 236.5,232C 235.833,231.667 235.167,231.333 234.5,231C 235.563,229.812 236.897,229.312 238.5,229.5C 239.822,229.33 240.989,229.663 242,230.5C 247.465,227.624 252.632,224.29 257.5,220.5C 257.758,222.576 258.258,224.909 259,227.5C 261.587,226.304 264.42,226.304 267.5,227.5 Z"/></g>
<g><path style="opacity:1" fill="#02aaf0" d="M 312.5,176.5 C 313.117,176.611 313.617,176.944 314,177.5C 317.67,192.938 316.837,208.105 311.5,223C 313.159,227.719 312.493,232.052 309.5,236C 310.943,238.078 310.276,238.911 307.5,238.5C 307.274,242.557 306.941,246.557 306.5,250.5C 305.724,254.052 304.391,257.386 302.5,260.5C 300.61,260.297 299.11,260.963 298,262.5C 297.402,265.308 296.235,267.808 294.5,270C 295.15,271.609 294.65,273.109 293,274.5C 292.667,274.167 292.333,273.833 292,273.5C 291.333,275.5 290.667,277.5 290,279.5C 285.458,283.802 280.958,287.302 276.5,290C 276.957,290.414 277.291,290.914 277.5,291.5C 274.364,294.168 272.197,297.501 271,301.5C 267.277,304.392 263.444,307.225 259.5,310C 258.663,311.011 258.33,312.178 258.5,313.5C 253.352,317.911 247.686,321.578 241.5,324.5C 239.073,324.477 236.74,323.977 234.5,323C 235.678,322.033 237.011,321.533 238.5,321.5C 237.817,318.539 236.984,318.205 236,320.5C 233.626,317.712 232.293,318.046 232,321.5C 231.5,321 231,320.5 230.5,320C 230.833,318.333 231.167,316.667 231.5,315C 230.167,314 228.833,313 227.5,312C 228.308,311.692 228.975,311.192 229.5,310.5C 228.5,309.167 227.5,307.833 226.5,306.5C 225.914,306.709 225.414,307.043 225,307.5C 223.849,303.772 222.516,300.105 221,296.5C 220.667,296.833 220.333,297.167 220,297.5C 220.75,293.287 219.416,289.62 216,286.5C 215.667,286.833 215.333,287.167 215,287.5C 214.333,285.833 214.333,284.167 215,282.5C 215.333,282.833 215.667,283.167 216,283.5C 216.483,282.552 216.649,281.552 216.5,280.5C 219.238,279.965 221.072,280.965 222,283.5C 222.914,282.346 223.747,282.513 224.5,284C 223.483,285.049 223.316,286.216 224,287.5C 227.447,289.378 228.614,292.045 227.5,295.5C 227.733,296.932 228.4,297.432 229.5,297C 229.742,293.121 229.742,288.955 229.5,284.5C 227.889,282.019 225.555,280.519 222.5,280C 225.763,279.131 226.096,277.797 223.5,276C 224.833,275.667 226.167,275.333 227.5,275C 225.697,273.129 224.364,270.962 223.5,268.5C 223.833,268.167 224.167,267.833 224.5,267.5C 225.48,268.981 226.647,270.315 228,271.5C 228.823,267.085 229.99,266.752 231.5,270.5C 231.307,269.312 231.807,267.978 233,266.5C 233.414,266.957 233.914,267.291 234.5,267.5C 236.167,265.5 237.833,263.5 239.5,261.5C 238.572,260.232 238.405,258.899 239,257.5C 241.363,258.232 243.863,258.232 246.5,257.5C 246.297,255.61 246.963,254.11 248.5,253C 245.84,251.343 245.84,249.676 248.5,248C 247.387,246.606 246.053,245.439 244.5,244.5C 246.265,244.811 247.932,244.144 249.5,242.5C 255.827,238.562 261.827,233.562 267.5,227.5C 268.601,226.402 269.934,226.235 271.5,227C 271.792,229.118 271.959,231.284 272,233.5C 273.299,234.98 274.966,235.646 277,235.5C 282.567,233.096 287.067,229.429 290.5,224.5C 291.833,223.833 292.833,222.833 293.5,221.5C 294.49,215.355 294.823,209.022 294.5,202.5C 299.463,203.496 304.463,203.663 309.5,203C 310,202.5 310.5,202 311,201.5C 311.709,197.132 311.542,192.799 310.5,188.5C 310.833,187.833 311.167,187.167 311.5,186.5C 312.904,187.999 313.57,187.666 313.5,185.5C 312.698,182.551 312.364,179.551 312.5,176.5 Z"/></g>
<g><path style="opacity:1" fill="#80b8d4" d="M 225.5,238.5 C 224.247,247.016 219.914,251.85 212.5,253C 213.196,254.488 212.862,255.988 211.5,257.5C 210.575,258.641 209.741,258.641 209,257.5C 206.297,260.371 203.464,263.038 200.5,265.5C 200.167,265.5 199.833,265.5 199.5,265.5C 199.179,263.952 198.179,263.285 196.5,263.5C 204.825,257.659 212.825,251.326 220.5,244.5C 222.167,242.5 223.833,240.5 225.5,238.5 Z"/></g>
<g><path style="opacity:1" fill="#61f8f8" d="M 63.5,231.5 C 63.8333,231.5 64.1667,231.5 64.5,231.5C 66.3904,231.703 67.8904,231.037 69,229.5C 69.8624,231.087 70.5291,232.754 71,234.5C 71.3333,233.5 71.6667,232.5 72,231.5C 72.5,232.667 73.3333,233.5 74.5,234C 71.8105,236.948 72.8105,239.448 77.5,241.5C 78.4519,243.045 78.7852,244.712 78.5,246.5C 79.9305,246.579 81.2638,246.246 82.5,245.5C 83.1411,244.007 84.1411,243.007 85.5,242.5C 85.3893,243.117 85.056,243.617 84.5,244C 85.1253,246.8 85.792,249.634 86.5,252.5C 87.7362,253.246 89.0695,253.579 90.5,253.5C 90.8194,257.311 89.3194,258.644 86,257.5C 85.8019,259.382 85.3019,261.048 84.5,262.5C 84.5875,259.402 84.0875,259.068 83,261.5C 81.4126,260.273 80.0793,260.606 79,262.5C 78.3333,261.167 78.3333,259.833 79,258.5C 80.7748,256.126 81.9414,253.626 82.5,251C 81.5509,250.383 80.7175,250.549 80,251.5C 79.7508,250.376 79.2508,249.376 78.5,248.5C 75.7896,251.309 73.6229,253.976 72,256.5C 69.9019,255.433 67.7352,254.933 65.5,255C 66.5536,256.388 66.7203,257.888 66,259.5C 65.6667,258.833 65.3333,258.167 65,257.5C 64,257.833 63,258.167 62,258.5C 60.9563,257.377 60.2896,256.044 60,254.5C 59.0855,258.185 58.4189,257.852 58,253.5C 57.3333,258.833 56.6667,258.833 56,253.5C 55.3333,258.833 54.6667,258.833 54,253.5C 53.6667,254.833 53.3333,256.167 53,257.5C 52.3333,258.833 51.6667,258.833 51,257.5C 50.6667,258.167 50.3333,258.833 50,259.5C 49.3333,258.167 48.6667,258.167 48,259.5C 46.647,258.315 45.4803,256.981 44.5,255.5C 43.0071,259.014 41.5071,258.68 40,254.5C 39.6667,255.167 39.3333,255.833 39,256.5C 37.1819,252.714 35.6819,253.048 34.5,257.5C 35.3333,259.167 36.1667,260.833 37,262.5C 37.6667,259.833 38.3333,259.833 39,262.5C 39.6667,259.833 40.3333,259.833 41,262.5C 41.6667,259.833 42.3333,259.833 43,262.5C 43.6667,259.833 44.3333,259.833 45,262.5C 45.6667,259.833 46.3333,259.833 47,262.5C 47.6667,259.833 48.3333,259.833 49,262.5C 49.6667,259.833 50.3333,259.833 51,262.5C 51.6667,259.833 52.3333,259.833 53,262.5C 53.6667,259.833 54.3333,259.833 55,262.5C 55.6667,259.833 56.3333,259.833 57,262.5C 57.6667,259.833 58.3333,259.833 59,262.5C 59.6667,259.833 60.3333,259.833 61,262.5C 61.6667,259.833 62.3333,259.833 63,262.5C 63.3333,261.833 63.6667,261.167 64,260.5C 65.373,262.695 65.7063,265.029 65,267.5C 64.6667,266.167 64.3333,264.833 64,263.5C 63.3333,266.167 62.6667,266.167 62,263.5C 61.3333,266.167 60.6667,266.167 60,263.5C 59.3333,266.167 58.6667,266.167 58,263.5C 57.3333,266.167 56.6667,266.167 56,263.5C 55.3333,266.167 54.6667,266.167 54,263.5C 53.3333,266.167 52.6667,266.167 52,263.5C 51.3333,266.167 50.6667,266.167 50,263.5C 49.3333,266.167 48.6667,266.167 48,263.5C 47.3333,266.167 46.6667,266.167 46,263.5C 45.3333,266.167 44.6667,266.167 44,263.5C 43.3333,266.167 42.6667,266.167 42,263.5C 41.3333,266.167 40.6667,266.167 40,263.5C 39.3333,266.167 38.6667,266.167 38,263.5C 37.3333,266.167 36.6667,266.167 36,263.5C 35.3333,266.167 34.6667,266.167 34,263.5C 33.254,267.474 31.0873,268.474 27.5,266.5C 21.166,255.163 16.4993,243.163 13.5,230.5C 14.7899,231.058 15.6232,232.058 16,233.5C 16.3333,232.833 16.6667,232.167 17,231.5C 17.6667,234.167 18.3333,234.167 19,231.5C 20,231.5 21,231.5 22,231.5C 24.8333,230 27,227.833 28.5,225C 30.1667,224.167 31.8333,223.333 33.5,222.5C 34.2621,223.628 34.9288,224.795 35.5,226C 34.4464,227.388 34.2797,228.888 35,230.5C 37.3033,230.742 39.3033,232.075 41,234.5C 41.7485,232.668 42.7485,231.001 44,229.5C 44.3333,229.833 44.6667,230.167 45,230.5C 46.1939,229.57 47.5272,228.903 49,228.5C 50.9782,230.478 52.9782,232.478 55,234.5C 56.1226,235.024 57.4559,235.024 59,234.5C 59.9454,234.905 60.6121,235.572 61,236.5C 61.7848,234.751 62.6182,233.084 63.5,231.5 Z"/></g>
<g><path style="opacity:1" fill="#b0eeee" d="M 96.5,244.5 C 97.552,244.351 98.552,244.517 99.5,245C 102.888,247.531 105.221,250.698 106.5,254.5C 108.565,254.517 110.565,254.85 112.5,255.5C 135.058,273.373 160.058,277.373 187.5,267.5C 184.88,270.379 181.546,271.712 177.5,271.5C 177.5,272.5 177.5,273.5 177.5,274.5C 164.196,275.661 151.196,275.327 138.5,273.5C 137.778,273.918 137.278,274.584 137,275.5C 134.661,272.895 132.328,272.562 130,274.5C 128.318,268.615 124.652,266.282 119,267.5C 115.303,265.441 112.303,262.107 110,257.5C 107.692,257.793 105.526,256.959 103.5,255C 102.62,250.728 99.9533,247.395 95.5,245C 95.7284,244.601 96.0618,244.435 96.5,244.5 Z"/></g>
<g><path style="opacity:1" fill="#61c1f0" d="M 230.5,233.5 C 230.611,234.337 230.944,235.337 231.5,236.5C 230.965,238.271 230.131,238.604 229,237.5C 227.996,240.993 228.496,244.159 230.5,247C 227.456,247.359 227.122,248.026 229.5,249C 228.069,249.465 226.903,250.299 226,251.5C 223.934,248.702 222.434,249.035 221.5,252.5C 222.428,253.768 222.595,255.101 222,256.5C 220.667,257.167 219.667,258.167 219,259.5C 218.586,259.043 218.086,258.709 217.5,258.5C 215.578,260.292 214.078,262.292 213,264.5C 211.887,263.289 210.72,263.289 209.5,264.5C 207.058,265.824 205.058,267.491 203.5,269.5C 201.799,268.789 200.799,267.455 200.5,265.5C 203.464,263.038 206.297,260.371 209,257.5C 209.741,258.641 210.575,258.641 211.5,257.5C 212.862,255.988 213.196,254.488 212.5,253C 219.914,251.85 224.247,247.016 225.5,238.5C 225.995,237.187 226.828,235.521 228,233.5C 228.333,234.5 228.667,235.5 229,236.5C 229.232,235.263 229.732,234.263 230.5,233.5 Z"/></g>
<g><path style="opacity:1" fill="#3cb7ee" d="M 230.5,233.5 C 230.5,232.833 230.833,232.5 231.5,232.5C 235.095,234.102 238.429,236.102 241.5,238.5C 238.375,239.1 238.042,240.267 240.5,242C 239.251,243.824 238.085,243.657 237,241.5C 236.105,245.649 234.105,248.316 231,249.5C 230.517,250.448 230.351,251.448 230.5,252.5C 229.325,252.281 228.325,252.614 227.5,253.5C 224.769,256.435 222.269,259.102 220,261.5C 220.131,263.822 220.965,265.988 222.5,268C 221.333,269.5 220.167,271 219,272.5C 216.139,272.092 215.972,272.925 218.5,275C 213.407,276.204 211.24,274.371 212,269.5C 210.35,270.891 209.85,272.391 210.5,274C 208.193,275.828 208.526,277.494 211.5,279C 211.167,279.333 210.833,279.667 210.5,280C 212.229,281.789 212.896,283.956 212.5,286.5C 211.476,283.633 209.81,281.133 207.5,279C 208.299,277.251 207.632,275.918 205.5,275C 206.634,273.984 206.301,273.317 204.5,273C 205.167,272.667 205.833,272.333 206.5,272C 204.881,271.764 203.881,270.931 203.5,269.5C 205.058,267.491 207.058,265.824 209.5,264.5C 210.72,263.289 211.887,263.289 213,264.5C 214.078,262.292 215.578,260.292 217.5,258.5C 218.086,258.709 218.586,259.043 219,259.5C 219.667,258.167 220.667,257.167 222,256.5C 222.595,255.101 222.428,253.768 221.5,252.5C 222.434,249.035 223.934,248.702 226,251.5C 226.903,250.299 228.069,249.465 229.5,249C 227.122,248.026 227.456,247.359 230.5,247C 228.496,244.159 227.996,240.993 229,237.5C 230.131,238.604 230.965,238.271 231.5,236.5C 230.944,235.337 230.611,234.337 230.5,233.5 Z"/></g>
<g><path style="opacity:1" fill="#698b92" d="M 193.5,264.5 C 192.077,266.545 190.077,267.545 187.5,267.5C 189.03,265.654 191.03,264.654 193.5,264.5 Z"/></g>
<g><path style="opacity:1" fill="#41a2cb" d="M 302.5,260.5 C 292.209,281.792 277.542,299.459 258.5,313.5C 258.33,312.178 258.663,311.011 259.5,310C 263.444,307.225 267.277,304.392 271,301.5C 272.197,297.501 274.364,294.168 277.5,291.5C 277.291,290.914 276.957,290.414 276.5,290C 280.958,287.302 285.458,283.802 290,279.5C 290.667,277.5 291.333,275.5 292,273.5C 292.333,273.833 292.667,274.167 293,274.5C 294.65,273.109 295.15,271.609 294.5,270C 296.235,267.808 297.402,265.308 298,262.5C 299.11,260.963 300.61,260.297 302.5,260.5 Z"/></g>
<g><path style="opacity:1" fill="#8afcfc" d="M 89.5,233.5 C 91.5552,237.261 93.8885,240.928 96.5,244.5C 96.0618,244.435 95.7284,244.601 95.5,245C 99.9533,247.395 102.62,250.728 103.5,255C 105.526,256.959 107.692,257.793 110,257.5C 112.303,262.107 115.303,265.441 119,267.5C 124.652,266.282 128.318,268.615 130,274.5C 132.328,272.562 134.661,272.895 137,275.5C 137.278,274.584 137.778,273.918 138.5,273.5C 141.451,274.529 144.284,275.862 147,277.5C 151.252,276.631 155.418,276.298 159.5,276.5C 160.149,278.624 160.983,280.624 162,282.5C 162.333,282.167 162.667,281.833 163,281.5C 164.816,283.441 166.816,284.108 169,283.5C 169.419,284.672 170.085,285.672 171,286.5C 172.076,283.64 172.909,280.64 173.5,277.5C 174.308,277.192 174.975,276.692 175.5,276C 178.477,275.16 181.811,274.493 185.5,274C 190.364,270.647 195.031,267.814 199.5,265.5C 199.833,265.5 200.167,265.5 200.5,265.5C 200.799,267.455 201.799,268.789 203.5,269.5C 203.881,270.931 204.881,271.764 206.5,272C 205.833,272.333 205.167,272.667 204.5,273C 206.301,273.317 206.634,273.984 205.5,275C 207.632,275.918 208.299,277.251 207.5,279C 209.81,281.133 211.476,283.633 212.5,286.5C 213.773,288.713 214.773,291.046 215.5,293.5C 213.347,290.448 211.014,287.448 208.5,284.5C 207.571,283.311 207.238,281.978 207.5,280.5C 203.286,280.25 199.453,281.25 196,283.5C 195.667,283.167 195.333,282.833 195,282.5C 194.517,283.448 194.351,284.448 194.5,285.5C 191.212,285.073 188.212,285.74 185.5,287.5C 183.232,286.517 180.732,286.184 178,286.5C 176.655,288.618 176.155,290.618 176.5,292.5C 175.804,289.444 174.97,286.444 174,283.5C 173.667,285.833 173.333,288.167 173,290.5C 171.667,289.833 170.667,288.833 170,287.5C 169.333,288.833 168.667,288.833 168,287.5C 167.193,291.449 166.693,291.449 166.5,287.5C 161.652,286.721 156.652,286.388 151.5,286.5C 150.071,288.083 148.571,288.75 147,288.5C 145.691,286.109 144.691,286.109 144,288.5C 142.437,285.956 140.937,285.956 139.5,288.5C 138.571,287.311 138.238,285.978 138.5,284.5C 136.459,284.146 134.626,284.146 133,284.5C 132,281.833 131,281.833 130,284.5C 128.488,282.043 127.154,282.043 126,284.5C 123.582,282.388 121.582,279.388 120,275.5C 119.586,275.957 119.086,276.291 118.5,276.5C 115.17,275.906 111.836,275.24 108.5,274.5C 108.709,273.914 109.043,273.414 109.5,273C 108.15,271.282 106.983,269.448 106,267.5C 105.667,267.833 105.333,268.167 105,268.5C 104.581,267.328 103.915,266.328 103,265.5C 101.951,266.517 100.784,266.684 99.5,266C 100.337,264.989 100.67,263.822 100.5,262.5C 98.549,262.773 97.049,262.107 96,260.5C 95,261.5 94,262.5 93,263.5C 92.5357,262.906 92.369,262.239 92.5,261.5C 92.0831,260.876 91.4164,260.543 90.5,260.5C 88.9589,261.286 87.6256,262.286 86.5,263.5C 85.5084,263.672 84.8417,263.338 84.5,262.5C 85.3019,261.048 85.8019,259.382 86,257.5C 89.3194,258.644 90.8194,257.311 90.5,253.5C 89.0695,253.579 87.7362,253.246 86.5,252.5C 85.792,249.634 85.1253,246.8 84.5,244C 85.056,243.617 85.3893,243.117 85.5,242.5C 86.2899,241.206 87.2899,240.039 88.5,239C 88.0426,238.586 87.7093,238.086 87.5,237.5C 88.6302,236.378 89.2969,235.044 89.5,233.5 Z"/></g>
<g><path style="opacity:1" fill="#a6fbfb" d="M 196.5,263.5 C 198.179,263.285 199.179,263.952 199.5,265.5C 195.031,267.814 190.364,270.647 185.5,274C 181.811,274.493 178.477,275.16 175.5,276C 174.975,276.692 174.308,277.192 173.5,277.5C 172.909,280.64 172.076,283.64 171,286.5C 170.085,285.672 169.419,284.672 169,283.5C 166.816,284.108 164.816,283.441 163,281.5C 162.667,281.833 162.333,282.167 162,282.5C 160.983,280.624 160.149,278.624 159.5,276.5C 155.418,276.298 151.252,276.631 147,277.5C 144.284,275.862 141.451,274.529 138.5,273.5C 151.196,275.327 164.196,275.661 177.5,274.5C 177.5,273.5 177.5,272.5 177.5,271.5C 181.546,271.712 184.88,270.379 187.5,267.5C 190.077,267.545 192.077,266.545 193.5,264.5C 194.391,263.89 195.391,263.557 196.5,263.5 Z"/></g>
<g><path style="opacity:1" fill="#07aeed" d="M 241.5,238.5 C 243.941,240.272 246.608,241.606 249.5,242.5C 247.932,244.144 246.265,244.811 244.5,244.5C 246.053,245.439 247.387,246.606 248.5,248C 245.84,249.676 245.84,251.343 248.5,253C 246.963,254.11 246.297,255.61 246.5,257.5C 243.863,258.232 241.363,258.232 239,257.5C 238.405,258.899 238.572,260.232 239.5,261.5C 237.833,263.5 236.167,265.5 234.5,267.5C 233.914,267.291 233.414,266.957 233,266.5C 231.807,267.978 231.307,269.312 231.5,270.5C 229.99,266.752 228.823,267.085 228,271.5C 226.647,270.315 225.48,268.981 224.5,267.5C 224.167,267.833 223.833,268.167 223.5,268.5C 224.364,270.962 225.697,273.129 227.5,275C 226.167,275.333 224.833,275.667 223.5,276C 226.096,277.797 225.763,279.131 222.5,280C 225.555,280.519 227.889,282.019 229.5,284.5C 229.742,288.955 229.742,293.121 229.5,297C 228.4,297.432 227.733,296.932 227.5,295.5C 228.614,292.045 227.447,289.378 224,287.5C 223.316,286.216 223.483,285.049 224.5,284C 223.747,282.513 222.914,282.346 222,283.5C 221.072,280.965 219.238,279.965 216.5,280.5C 216.649,281.552 216.483,282.552 216,283.5C 215.667,283.167 215.333,282.833 215,282.5C 214.333,284.167 214.333,285.833 215,287.5C 215.333,287.167 215.667,286.833 216,286.5C 219.416,289.62 220.75,293.287 220,297.5C 220.333,297.167 220.667,296.833 221,296.5C 222.516,300.105 223.849,303.772 225,307.5C 225.414,307.043 225.914,306.709 226.5,306.5C 227.5,307.833 228.5,309.167 229.5,310.5C 228.975,311.192 228.308,311.692 227.5,312C 228.833,313 230.167,314 231.5,315C 231.167,316.667 230.833,318.333 230.5,320C 231,320.5 231.5,321 232,321.5C 232.293,318.046 233.626,317.712 236,320.5C 236.984,318.205 237.817,318.539 238.5,321.5C 237.011,321.533 235.678,322.033 234.5,323C 236.74,323.977 239.073,324.477 241.5,324.5C 239.337,326.083 237.004,327.416 234.5,328.5C 228.308,317.819 222.808,306.819 218,295.5C 217.292,294.619 216.458,293.953 215.5,293.5C 214.773,291.046 213.773,288.713 212.5,286.5C 212.896,283.956 212.229,281.789 210.5,280C 210.833,279.667 211.167,279.333 211.5,279C 208.526,277.494 208.193,275.828 210.5,274C 209.85,272.391 210.35,270.891 212,269.5C 211.24,274.371 213.407,276.204 218.5,275C 215.972,272.925 216.139,272.092 219,272.5C 220.167,271 221.333,269.5 222.5,268C 220.965,265.988 220.131,263.822 220,261.5C 222.269,259.102 224.769,256.435 227.5,253.5C 228.325,252.614 229.325,252.281 230.5,252.5C 230.351,251.448 230.517,250.448 231,249.5C 234.105,248.316 236.105,245.649 237,241.5C 238.085,243.657 239.251,243.824 240.5,242C 238.042,240.267 238.375,239.1 241.5,238.5 Z"/></g>
<g><path style="opacity:1" fill="#62fdfd" d="M 84.5,262.5 C 84.8417,263.338 85.5084,263.672 86.5,263.5C 80.2391,271.265 73.4057,278.598 66,285.5C 64.3055,287.24 63.1389,289.24 62.5,291.5C 63.675,291.719 64.675,291.386 65.5,290.5C 74.1266,280.538 83.1266,270.871 92.5,261.5C 92.369,262.239 92.5357,262.906 93,263.5C 94,262.5 95,261.5 96,260.5C 97.049,262.107 98.549,262.773 100.5,262.5C 100.67,263.822 100.337,264.989 99.5,266C 100.784,266.684 101.951,266.517 103,265.5C 103.915,266.328 104.581,267.328 105,268.5C 105.333,268.167 105.667,267.833 106,267.5C 106.983,269.448 108.15,271.282 109.5,273C 109.043,273.414 108.709,273.914 108.5,274.5C 111.836,275.24 115.17,275.906 118.5,276.5C 119.086,276.291 119.586,275.957 120,275.5C 121.582,279.388 123.582,282.388 126,284.5C 127.154,282.043 128.488,282.043 130,284.5C 131,281.833 132,281.833 133,284.5C 134.626,284.146 136.459,284.146 138.5,284.5C 138.238,285.978 138.571,287.311 139.5,288.5C 140.937,285.956 142.437,285.956 144,288.5C 144.691,286.109 145.691,286.109 147,288.5C 148.571,288.75 150.071,288.083 151.5,286.5C 156.652,286.388 161.652,286.721 166.5,287.5C 166.693,291.449 167.193,291.449 168,287.5C 168.667,288.833 169.333,288.833 170,287.5C 170.667,288.833 171.667,289.833 173,290.5C 173.333,288.167 173.667,285.833 174,283.5C 174.97,286.444 175.804,289.444 176.5,292.5C 176.155,290.618 176.655,288.618 178,286.5C 180.732,286.184 183.232,286.517 185.5,287.5C 188.212,285.74 191.212,285.073 194.5,285.5C 194.351,284.448 194.517,283.448 195,282.5C 195.333,282.833 195.667,283.167 196,283.5C 199.453,281.25 203.286,280.25 207.5,280.5C 207.238,281.978 207.571,283.311 208.5,284.5C 211.014,287.448 213.347,290.448 215.5,293.5C 216.458,293.953 217.292,294.619 218,295.5C 222.808,306.819 228.308,317.819 234.5,328.5C 177.013,354.947 122.013,350.447 69.5,315C 52.3427,301.485 38.3427,285.318 27.5,266.5C 31.0873,268.474 33.254,267.474 34,263.5C 34.6667,266.167 35.3333,266.167 36,263.5C 36.6667,266.167 37.3333,266.167 38,263.5C 38.6667,266.167 39.3333,266.167 40,263.5C 40.6667,266.167 41.3333,266.167 42,263.5C 42.6667,266.167 43.3333,266.167 44,263.5C 44.6667,266.167 45.3333,266.167 46,263.5C 46.6667,266.167 47.3333,266.167 48,263.5C 48.6667,266.167 49.3333,266.167 50,263.5C 50.6667,266.167 51.3333,266.167 52,263.5C 52.6667,266.167 53.3333,266.167 54,263.5C 54.6667,266.167 55.3333,266.167 56,263.5C 56.6667,266.167 57.3333,266.167 58,263.5C 58.6667,266.167 59.3333,266.167 60,263.5C 60.6667,266.167 61.3333,266.167 62,263.5C 62.6667,266.167 63.3333,266.167 64,263.5C 64.3333,264.833 64.6667,266.167 65,267.5C 65.7063,265.029 65.373,262.695 64,260.5C 63.6667,261.167 63.3333,261.833 63,262.5C 62.3333,259.833 61.6667,259.833 61,262.5C 60.3333,259.833 59.6667,259.833 59,262.5C 58.3333,259.833 57.6667,259.833 57,262.5C 56.3333,259.833 55.6667,259.833 55,262.5C 54.3333,259.833 53.6667,259.833 53,262.5C 52.3333,259.833 51.6667,259.833 51,262.5C 50.3333,259.833 49.6667,259.833 49,262.5C 48.3333,259.833 47.6667,259.833 47,262.5C 46.3333,259.833 45.6667,259.833 45,262.5C 44.3333,259.833 43.6667,259.833 43,262.5C 42.3333,259.833 41.6667,259.833 41,262.5C 40.3333,259.833 39.6667,259.833 39,262.5C 38.3333,259.833 37.6667,259.833 37,262.5C 36.1667,260.833 35.3333,259.167 34.5,257.5C 35.6819,253.048 37.1819,252.714 39,256.5C 39.3333,255.833 39.6667,255.167 40,254.5C 41.5071,258.68 43.0071,259.014 44.5,255.5C 45.4803,256.981 46.647,258.315 48,259.5C 48.6667,258.167 49.3333,258.167 50,259.5C 50.3333,258.833 50.6667,258.167 51,257.5C 51.6667,258.833 52.3333,258.833 53,257.5C 53.3333,256.167 53.6667,254.833 54,253.5C 54.6667,258.833 55.3333,258.833 56,253.5C 56.6667,258.833 57.3333,258.833 58,253.5C 58.4189,257.852 59.0855,258.185 60,254.5C 60.2896,256.044 60.9563,257.377 62,258.5C 63,258.167 64,257.833 65,257.5C 65.3333,258.167 65.6667,258.833 66,259.5C 66.7203,257.888 66.5536,256.388 65.5,255C 67.7352,254.933 69.9019,255.433 72,256.5C 73.6229,253.976 75.7896,251.309 78.5,248.5C 79.2508,249.376 79.7508,250.376 80,251.5C 80.7175,250.549 81.5509,250.383 82.5,251C 81.9414,253.626 80.7748,256.126 79,258.5C 78.3333,259.833 78.3333,261.167 79,262.5C 80.0793,260.606 81.4126,260.273 83,261.5C 84.0875,259.068 84.5875,259.402 84.5,262.5 Z"/></g>
<g><path style="opacity:1" fill="#48dddf" d="M 134.5,285.5 C 135.5,285.5 136.5,285.5 137.5,285.5C 135.065,296.036 131.232,306.036 126,315.5C 125.866,319.917 124.199,323.584 121,326.5C 120.83,324.155 121.163,321.821 122,319.5C 124.914,310.856 128.581,302.523 133,294.5C 133.953,291.568 134.453,288.568 134.5,285.5 Z"/></g>
<g><path style="opacity:1" fill="#3cd7d9" d="M 92.5,261.5 C 83.1266,270.871 74.1266,280.538 65.5,290.5C 64.675,291.386 63.675,291.719 62.5,291.5C 63.1389,289.24 64.3055,287.24 66,285.5C 73.4057,278.598 80.2391,271.265 86.5,263.5C 87.6256,262.286 88.9589,261.286 90.5,260.5C 91.4164,260.543 92.0831,260.876 92.5,261.5 Z"/></g>
</svg>
